<svg width="57" height="65" viewBox="0 0 57 65" fill="none" xmlns="http://www.w3.org/2000/svg">
<path d="M56.1342 32.1326C56.1404 21.4186 51.3667 14.9425 47.3616 11.3967C43.8985 8.33168 40.4629 6.89255 39.1218 6.41181C37.107 2.60269 33.1019 0 28.4997 0C23.8976 0 19.8925 2.60269 17.8777 6.41181C16.5396 6.89561 13.101 8.33168 9.63785 11.3967C5.63276 14.9425 0.859116 21.4186 0.86524 32.1326C0.871364 40.1948 1.70423 44.9715 2.69325 47.8069C2.10841 48.7071 1.76547 49.7758 1.76547 50.9271C1.76547 54.0993 4.34673 56.6806 7.51895 56.6806C8.9979 56.6806 10.3421 56.1172 11.3618 55.1955C13.845 54.8005 19.4546 54.1146 28.4997 54.1146C37.5449 54.1146 43.1544 54.8005 45.6377 55.1955C46.6574 56.1141 48.0016 56.6806 49.4805 56.6806C52.6527 56.6806 55.234 54.0993 55.234 50.9271C55.234 49.7758 54.8911 48.7071 54.3062 47.8069C55.2983 44.9715 56.1312 40.1948 56.1342 32.1326ZM28.4997 1.72696C34.1736 1.72696 38.788 6.34139 38.788 12.0153C38.788 17.6891 34.1736 22.3036 28.4997 22.3036C22.8259 22.3036 18.2114 17.6891 18.2114 12.0153C18.2114 6.34139 22.8289 1.72696 28.4997 1.72696ZM10.7279 12.7379C13.0459 10.6741 15.3822 9.38807 16.9683 8.65626C16.659 9.72183 16.4875 10.8456 16.4875 12.0091C16.4875 18.6322 21.8766 24.0213 28.4997 24.0213C35.1228 24.0213 40.5119 18.6322 40.5119 12.0091C40.5119 10.8456 40.3435 9.71877 40.0312 8.65626C41.6173 9.38501 43.9536 10.6741 46.2715 12.7379C51.676 17.5483 54.4134 24.0734 54.4073 32.1295C54.4042 39.365 53.7214 43.7283 52.9528 46.3525C51.9852 45.6145 50.7849 45.1736 49.4775 45.1736C49.0488 45.1736 48.6354 45.2226 48.2343 45.3144C48.8283 39.9192 49.2111 28.155 41.9633 24.548C41.6663 24.401 41.3111 24.4347 41.0508 24.6399C37.502 27.3957 34.685 28.1948 28.4997 28.2132C22.3114 28.1979 19.4944 27.3957 15.9456 24.6399C15.6853 24.4378 15.327 24.401 15.0331 24.548C7.78535 28.155 8.17116 39.9192 8.76212 45.3144C8.361 45.2256 7.94457 45.1736 7.51895 45.1736C6.21148 45.1736 5.01118 45.6176 4.04359 46.3525C3.27503 43.7283 2.59527 39.365 2.5922 32.1295C2.58608 24.0734 5.3235 17.5513 10.7279 12.7379ZM11.3618 46.6587C11.1229 46.4443 10.8718 46.2483 10.5993 46.0769C10.0451 41.7258 9.18468 29.983 15.3393 26.3423C19.0045 29.0675 22.189 29.9187 28.5028 29.934C34.8136 29.9187 37.995 29.0675 41.6602 26.3423C47.8087 29.98 46.9482 41.7258 46.3971 46.0769C46.1276 46.2483 45.8735 46.4443 45.6377 46.6587C43.1544 47.0537 37.5449 47.7395 28.4997 47.7395C19.4546 47.7395 13.8481 47.0537 11.3618 46.6587ZM3.49243 50.9271C3.49243 48.7071 5.29901 46.9006 7.51895 46.9006C9.7389 46.9006 11.5455 48.7071 11.5455 50.9271C11.5455 53.147 9.7389 54.9536 7.51895 54.9536C5.29901 54.9536 3.49243 53.147 3.49243 50.9271ZM12.7795 53.2419C13.0918 52.5316 13.2694 51.7508 13.2694 50.9271C13.2694 50.1034 13.0918 49.3226 12.7795 48.6122C15.8016 49.0041 20.9489 49.4665 28.4997 49.4665C36.0476 49.4665 41.1978 49.0072 44.2169 48.6153C43.9046 49.3257 43.727 50.1065 43.727 50.9301C43.727 51.7538 43.9046 52.5377 44.2169 53.245C41.1948 52.8531 36.0476 52.3907 28.4967 52.3907C20.9519 52.3876 15.8016 52.85 12.7795 53.2419ZM49.4805 54.9536C47.2606 54.9536 45.454 53.147 45.454 50.9271C45.454 48.7071 47.2606 46.9006 49.4805 46.9006C51.7005 46.9006 53.507 48.7071 53.507 50.9271C53.507 53.147 51.7005 54.9536 49.4805 54.9536Z" fill="#2B2D2F"/>
<path d="M28.4992 56.8889C28.0216 56.8889 27.6357 57.2747 27.6357 57.7524V64.1367C27.6357 64.6143 28.0216 65.0001 28.4992 65.0001C28.9769 65.0001 29.3627 64.6143 29.3627 64.1367V57.7524C29.3627 57.2778 28.9769 56.8889 28.4992 56.8889Z" fill="#2B2D2F"/>
<path d="M34.7245 56.7908C34.5071 56.3683 33.9866 56.1998 33.5609 56.4203C33.1384 56.6377 32.973 57.1582 33.1904 57.5839L35.1379 61.3532C35.291 61.6502 35.5941 61.8217 35.9064 61.8217C36.0381 61.8217 36.1759 61.791 36.3014 61.7237C36.724 61.5063 36.8893 60.9857 36.6719 60.5601L34.7245 56.7908Z" fill="#2B2D2F"/>
<path d="M23.4381 56.4203C23.0125 56.1998 22.495 56.3683 22.2746 56.7908L20.3272 60.5601C20.1098 60.9827 20.2751 61.5032 20.6977 61.7237C20.8232 61.788 20.961 61.8186 21.0927 61.8186C21.405 61.8186 21.7081 61.6471 21.8612 61.3501L23.8086 57.5808C24.026 57.1582 23.8607 56.6377 23.4381 56.4203Z" fill="#2B2D2F"/>
<path d="M29.3627 44.0988V37.7146C29.3627 37.2369 28.9769 36.8511 28.4992 36.8511C28.0216 36.8511 27.6357 37.2369 27.6357 37.7146V44.0988C27.6357 44.5765 28.0216 44.9623 28.4992 44.9623C28.9769 44.9623 29.3627 44.5765 29.3627 44.0988Z" fill="#2B2D2F"/>
<path d="M21.8612 40.501C21.6438 40.0785 21.1233 39.91 20.6977 40.1305C20.2751 40.3479 20.1098 40.8684 20.3272 41.2941L22.2746 45.0634C22.4277 45.3604 22.7308 45.5319 23.0431 45.5319C23.1748 45.5319 23.3126 45.5012 23.4381 45.4369C23.8607 45.2195 24.026 44.699 23.8086 44.2734L21.8612 40.501Z" fill="#2B2D2F"/>
<path d="M33.5609 45.4338C33.6865 45.4981 33.8243 45.5317 33.9559 45.5317C34.2683 45.5317 34.5714 45.3603 34.7245 45.0632L36.6719 41.2939C36.8893 40.8714 36.724 40.3508 36.3014 40.1304C35.8758 39.913 35.3583 40.0783 35.1379 40.5009L33.1904 44.2702C32.973 44.6927 33.1384 45.2133 33.5609 45.4338Z" fill="#2B2D2F"/>
</svg>
