<svg width="24" height="33" viewBox="0 0 24 33" fill="none" xmlns="http://www.w3.org/2000/svg">
<path d="M22.7344 11.7799C22.7344 13.4685 22.3441 15.0638 21.6482 16.4865C19.8848 20.0829 11.8672 31.208 11.8672 31.208C11.8672 31.208 4.03774 20.2088 2.22732 16.7617C1.44202 15.2737 1 13.5804 1 11.7799C1 5.82786 5.86697 1 11.8672 1C17.8675 1 22.7344 5.82786 22.7344 11.7799Z" stroke="white" stroke-width="1.6" stroke-miterlimit="10" stroke-linecap="square"/>
<path d="M16.1742 12.7945C16.7386 10.4332 15.2665 8.06521 12.8861 7.50535C10.5057 6.9455 8.11854 8.40581 7.55415 10.7671C6.98976 13.1283 8.4619 15.4963 10.8423 16.0562C13.2226 16.616 15.6099 15.1557 16.1742 12.7945Z" stroke="white" stroke-width="1.6" stroke-miterlimit="10" stroke-linecap="square"/>
</svg>
