<svg width="102" height="21" viewBox="0 0 102 24" fill="none" xmlns="http://www.w3.org/2000/svg">
<path d="M0.0361328 23.2085H22.8155V0.429199H0.0361328V23.2085ZM18.431 9.62706H13.6176V4.81366H18.431V9.62706ZM4.4197 4.81366H9.23579V14.0106H18.431V18.824H4.4197V4.81366ZM37.6491 0.429199C35.3964 0.429199 33.1943 1.0972 31.3213 2.34871C29.4483 3.60022 27.9884 5.37904 27.1264 7.46023C26.2643 9.54145 26.0388 11.8315 26.4783 14.0408C26.9178 16.2502 28.0025 18.2796 29.5953 19.8725C31.1882 21.4655 33.2176 22.5502 35.427 22.9897C37.6365 23.4291 39.9265 23.2036 42.0077 22.3416C44.0889 21.4795 45.8677 20.0197 47.1192 18.1466C48.3707 16.2736 49.0387 14.0715 49.0387 11.8188C49.0352 8.79919 47.834 5.90426 45.6988 3.76905C43.5636 1.63384 40.6687 0.432725 37.6491 0.429199ZM37.6491 18.824C36.2636 18.824 34.9092 18.4132 33.7571 17.6434C32.6052 16.8737 31.7073 15.7797 31.1771 14.4996C30.6469 13.2196 30.5082 11.8111 30.7784 10.4522C31.0488 9.09333 31.716 7.84513 32.6956 6.86543C33.6754 5.88574 34.9236 5.21856 36.2824 4.94827C37.6413 4.67797 39.0498 4.8167 40.3298 5.3469C41.6098 5.8771 42.704 6.77498 43.4737 7.92701C44.2434 9.07894 44.6543 10.4334 44.6543 11.8188C44.6514 13.6759 43.9125 15.4561 42.5993 16.7692C41.2862 18.0823 39.5061 18.8212 37.6491 18.824ZM89.7964 0.429199C87.5433 0.429031 85.3415 1.09687 83.4683 2.34827C81.5952 3.59968 80.1353 5.37844 79.273 7.45961C78.4109 9.54074 78.1851 11.8309 78.6245 14.0403C79.0639 16.2498 80.1486 18.2793 81.7415 19.8722C83.3342 21.4652 85.3637 22.5501 87.5735 22.9896C89.7822 23.4291 92.0725 23.2036 94.1542 22.3416C96.235 21.4796 98.0138 20.0198 99.2651 18.1467C100.517 16.2736 101.185 14.0716 101.185 11.8188C101.182 8.79937 99.9809 5.90454 97.8459 3.76936C95.711 1.63418 92.8158 0.432965 89.7964 0.429199ZM89.7964 18.824C88.4109 18.8242 87.0566 18.4135 85.9043 17.6439C84.7521 16.8743 83.8541 15.7802 83.3238 14.5002C82.7934 13.2202 82.6546 11.8117 82.9247 10.4527C83.195 9.09386 83.8621 7.84557 84.8418 6.86575C85.8214 5.88596 87.0699 5.2187 88.4287 4.94833C89.7875 4.67796 91.196 4.81663 92.4757 5.34682C93.7563 5.877 94.8504 6.77486 95.6204 7.92692C96.3895 9.07894 96.8007 10.4334 96.8007 11.8188C96.798 13.6757 96.0591 15.4557 94.7456 16.7688C93.4331 18.082 91.6533 18.821 89.7964 18.824ZM63.7223 0.429199C61.4696 0.429199 59.2675 1.0972 57.3945 2.34871C55.5215 3.60022 54.0616 5.37904 53.1996 7.46023C52.3375 9.54145 52.112 11.8315 52.5515 14.0408C52.991 16.2502 54.0757 18.2796 55.6685 19.8725C57.2614 21.4655 59.2908 22.5502 61.5002 22.9897C63.7096 23.4291 65.9997 23.2036 68.0809 22.3416C70.1621 21.4795 71.9408 20.0197 73.1924 18.1466C74.4439 16.2736 75.1119 14.0715 75.1119 11.8188C75.1084 8.79919 73.9072 5.90426 71.772 3.76905C69.6368 1.63384 66.7419 0.432725 63.7223 0.429199ZM63.7223 18.824C62.4314 18.8247 61.1655 18.4686 60.0642 17.7952C58.963 17.1218 58.0691 16.1572 57.4815 15.0079C56.8939 13.8585 56.6352 12.5691 56.7341 11.2821C56.8331 9.995 57.2856 8.76029 58.042 7.71422C58.7984 6.66821 59.8291 5.85148 61.0203 5.35424C62.2116 4.857 63.517 4.69858 64.7926 4.89646C66.0682 5.09436 67.2643 5.64085 68.2489 6.47563C69.2335 7.31041 69.9683 8.40107 70.3722 9.62706H63.7223V14.0106H70.3722C69.9096 15.4096 69.0184 16.6275 67.8247 17.4915C66.6311 18.3555 65.1958 18.8216 63.7223 18.824Z" fill="#848A8F"/>
</svg>
