<svg width="165" height="33" viewBox="0 0 165 33" fill="none" xmlns="http://www.w3.org/2000/svg">
<g clip-path="url(#clip0_324_58)">
<path d="M49.667 24.9883V8.83643H52.827V22.2195H60.4876V24.9883H49.667Z" fill="#848A8F"/>
<path d="M67.3112 25.3113C66.1302 25.3113 65.0688 25.0806 64.1272 24.6191C63.1855 24.1577 62.4434 23.4885 61.9008 22.6117C61.3582 21.7349 61.0869 20.6811 61.0869 19.4505V19.0813C61.0869 17.8507 61.3582 16.7969 61.9008 15.9201C62.4434 15.0433 63.1855 14.3741 64.1272 13.9126C65.0688 13.4512 66.1302 13.2205 67.3112 13.2205C68.4922 13.2205 69.5535 13.4512 70.4951 13.9126C71.4367 14.3741 72.1788 15.0433 72.7215 15.9201C73.2641 16.7969 73.5354 17.8507 73.5354 19.0813V19.4505C73.5354 20.6811 73.2641 21.7349 72.7215 22.6117C72.1788 23.4885 71.4367 24.1577 70.4951 24.6191C69.5535 25.0806 68.4922 25.3113 67.3112 25.3113ZM67.3112 22.727C68.2368 22.727 69.0029 22.4424 69.6094 21.8733C70.2158 21.2887 70.5191 20.458 70.5191 19.3813V19.1505C70.5191 18.0737 70.2158 17.2507 69.6094 16.6815C69.0188 16.097 68.2528 15.8047 67.3112 15.8047C66.3855 15.8047 65.6195 16.097 65.013 16.6815C64.4065 17.2507 64.1033 18.0737 64.1033 19.1505V19.3813C64.1033 20.458 64.4065 21.2887 65.013 21.8733C65.6195 22.4424 66.3855 22.727 67.3112 22.727Z" fill="#848A8F"/>
<path d="M74.668 19.3121V18.9429C74.668 17.743 74.9153 16.72 75.4101 15.8739C75.9048 15.0126 76.5592 14.3588 77.3731 13.9126C78.203 13.4512 79.1047 13.2205 80.0783 13.2205C81.1635 13.2205 81.9855 13.405 82.544 13.7742C83.1027 14.1434 83.5096 14.5279 83.7649 14.9279H84.1959V13.5434H87.1644V27.0188C87.1644 27.8033 86.925 28.4263 86.4462 28.8878C85.9674 29.3647 85.3291 29.6031 84.531 29.6031H76.5831V27.065H83.4777C83.9246 27.065 84.148 26.8342 84.148 26.3727V23.3962H83.7171C83.5575 23.6423 83.3341 23.8961 83.0468 24.1576C82.7596 24.4037 82.3765 24.6114 81.8977 24.7806C81.4189 24.9498 80.8125 25.0345 80.0783 25.0345C79.1047 25.0345 78.203 24.8113 77.3731 24.3653C76.5592 23.9038 75.9048 23.25 75.4101 22.4039C74.9153 21.5426 74.668 20.5119 74.668 19.3121ZM80.9402 22.4962C81.8658 22.4962 82.6398 22.2116 83.2622 21.6425C83.8847 21.0733 84.1959 20.2735 84.1959 19.2428V19.0121C84.1959 17.966 83.8847 17.1661 83.2622 16.6123C82.6557 16.0432 81.8817 15.7586 80.9402 15.7586C80.0144 15.7586 79.2404 16.0432 78.618 16.6123C77.9955 17.1661 77.6843 17.966 77.6843 19.0121V19.2428C77.6843 20.2735 77.9955 21.0733 78.618 21.6425C79.2404 22.2116 80.0144 22.4962 80.9402 22.4962Z" fill="#848A8F"/>
<path d="M95.0808 25.3116C93.8998 25.3116 92.8385 25.0808 91.8968 24.6193C90.9552 24.1579 90.2131 23.4887 89.6705 22.6119C89.1279 21.7351 88.8564 20.6814 88.8564 19.4507V19.0815C88.8564 17.8509 89.1279 16.7972 89.6705 15.9204C90.2131 15.0436 90.9552 14.3744 91.8968 13.9129C92.8385 13.4515 93.8998 13.2207 95.0808 13.2207C96.2618 13.2207 97.323 13.4515 98.2647 13.9129C99.2063 14.3744 99.9484 15.0436 100.491 15.9204C101.034 16.7972 101.305 17.8509 101.305 19.0815V19.4507C101.305 20.6814 101.034 21.7351 100.491 22.6119C99.9484 23.4887 99.2063 24.1579 98.2647 24.6193C97.323 25.0808 96.2618 25.3116 95.0808 25.3116ZM95.0808 22.7272C96.0064 22.7272 96.7725 22.4426 97.3789 21.8735C97.9854 21.289 98.2886 20.4583 98.2886 19.3815V19.1508C98.2886 18.0739 97.9854 17.251 97.3789 16.6818C96.7885 16.0973 96.0224 15.8049 95.0808 15.8049C94.155 15.8049 93.3891 16.0973 92.7826 16.6818C92.1761 17.251 91.8729 18.0739 91.8729 19.1508V19.3815C91.8729 20.4583 92.1761 21.289 92.7826 21.8735C93.3891 22.4426 94.155 22.7272 95.0808 22.7272Z" fill="#848A8F"/>
<path d="M103.013 24.9884V13.5436H106.03V24.9884H103.013ZM104.521 12.2053C103.978 12.2053 103.516 12.0361 103.132 11.6976C102.766 11.3593 102.582 10.9131 102.582 10.3594C102.582 9.80559 102.766 9.35948 103.132 9.02106C103.516 8.68264 103.978 8.51343 104.521 8.51343C105.08 8.51343 105.543 8.68264 105.909 9.02106C106.276 9.35948 106.461 9.80559 106.461 10.3594C106.461 10.9131 106.276 11.3593 105.909 11.6976C105.543 12.0361 105.08 12.2053 104.521 12.2053Z" fill="#848A8F"/>
<path d="M108.295 29.6033V13.5437H111.263V14.9281H111.694C111.965 14.4821 112.388 14.0898 112.963 13.7513C113.537 13.3976 114.359 13.2207 115.429 13.2207C116.386 13.2207 117.272 13.4515 118.085 13.9129C118.9 14.359 119.555 15.0204 120.048 15.8973C120.543 16.7741 120.791 17.8355 120.791 19.0815V19.4507C120.791 20.6967 120.543 21.7581 120.048 22.6349C119.555 23.5117 118.9 24.1809 118.085 24.6424C117.272 25.0885 116.386 25.3116 115.429 25.3116C114.711 25.3116 114.104 25.227 113.609 25.0577C113.13 24.9039 112.739 24.7039 112.436 24.4578C112.149 24.1963 111.917 23.9348 111.742 23.6733H111.31V29.6033H108.295ZM114.518 22.7734C115.461 22.7734 116.234 22.4889 116.84 21.9196C117.463 21.3351 117.775 20.4891 117.775 19.3815V19.1508C117.775 18.0432 117.463 17.2049 116.84 16.6356C116.218 16.0511 115.444 15.7588 114.518 15.7588C113.593 15.7588 112.819 16.0511 112.196 16.6356C111.574 17.2049 111.263 18.0432 111.263 19.1508V19.3815C111.263 20.4891 111.574 21.3351 112.196 21.9196C112.819 22.4889 113.593 22.7734 114.518 22.7734Z" fill="#848A8F"/>
<path d="M127.413 25.3116C125.864 25.3116 124.596 24.9885 123.606 24.3424C122.617 23.6964 122.018 22.7734 121.811 21.5736L124.587 20.8813C124.7 21.4198 124.883 21.8427 125.139 22.1504C125.409 22.458 125.737 22.6811 126.12 22.8196C126.519 22.9426 126.95 23.0041 127.413 23.0041C128.115 23.0041 128.634 22.8888 128.968 22.658C129.304 22.4119 129.471 22.1119 129.471 21.7581C129.471 21.4043 129.312 21.1352 128.993 20.9505C128.673 20.7506 128.163 20.589 127.461 20.466L126.79 20.3506C125.96 20.1968 125.203 19.9891 124.516 19.7276C123.829 19.4507 123.279 19.0738 122.864 18.5969C122.449 18.1201 122.242 17.5048 122.242 16.7511C122.242 15.6127 122.673 14.7436 123.535 14.1436C124.396 13.5283 125.53 13.2207 126.934 13.2207C128.258 13.2207 129.36 13.5052 130.238 14.0744C131.115 14.6436 131.689 15.3896 131.961 16.3127L129.161 17.1433C129.033 16.5588 128.77 16.1434 128.37 15.8973C127.987 15.6511 127.508 15.5281 126.934 15.5281C126.359 15.5281 125.921 15.6281 125.617 15.828C125.314 16.0127 125.162 16.2742 125.162 16.6125C125.162 16.9817 125.322 17.2587 125.641 17.4432C125.96 17.6124 126.391 17.7432 126.934 17.8355L127.604 17.9509C128.498 18.1047 129.304 18.3124 130.022 18.5739C130.756 18.82 131.33 19.1815 131.746 19.6584C132.176 20.1199 132.392 20.7506 132.392 21.5505C132.392 22.7503 131.937 23.681 131.028 24.3424C130.134 24.9885 128.929 25.3116 127.413 25.3116Z" fill="#848A8F"/>
<path d="M138.485 25.1729C137.559 25.1729 136.745 24.9729 136.042 24.573C135.356 24.1577 134.822 23.5885 134.438 22.8655C134.056 22.1424 133.864 21.3118 133.864 20.3734V13.5435H136.881V20.1427C136.881 21.0041 137.096 21.6502 137.527 22.081C137.973 22.5116 138.604 22.727 139.418 22.727C140.344 22.727 141.062 22.4348 141.572 21.8502C142.084 21.2503 142.339 20.4195 142.339 19.3582V13.5435H145.355V24.9883H142.386V23.4885H141.956C141.765 23.8731 141.405 24.2499 140.879 24.6191C140.352 24.9883 139.554 25.1729 138.485 25.1729Z" fill="#848A8F"/>
<path d="M147.635 24.988V13.5432H150.603V14.7892H151.034C151.242 14.4046 151.586 14.0739 152.064 13.797C152.542 13.5047 153.173 13.3586 153.955 13.3586C154.801 13.3586 155.48 13.5202 155.99 13.8432C156.5 14.1509 156.891 14.5584 157.163 15.0662H157.594C157.866 14.5739 158.248 14.1662 158.743 13.8432C159.238 13.5202 159.94 13.3586 160.849 13.3586C161.584 13.3586 162.246 13.5124 162.837 13.8202C163.443 14.1124 163.922 14.5662 164.273 15.1815C164.64 15.7814 164.824 16.5428 164.824 17.4659V24.988H161.807V17.6735C161.807 17.0428 161.639 16.5737 161.305 16.266C160.97 15.943 160.498 15.7814 159.892 15.7814C159.206 15.7814 158.671 15.9967 158.288 16.4275C157.921 16.8428 157.738 17.4427 157.738 18.2272V24.988H154.721V17.6735C154.721 17.0428 154.554 16.5737 154.218 16.266C153.883 15.943 153.413 15.7814 152.806 15.7814C152.119 15.7814 151.584 15.9967 151.202 16.4275C150.834 16.8428 150.651 17.4427 150.651 18.2272V24.988H147.635Z" fill="#848A8F"/>
<path d="M40.1095 16.3358C40.1095 12.2559 38.4279 8.34315 35.4349 5.45825C32.4418 2.57336 28.3823 0.952637 24.1494 0.952637C19.9166 0.952636 15.8571 2.57336 12.864 5.45825C9.87095 8.34315 8.18945 12.2559 8.18945 16.3358H13.177C14.8297 16.3358 16.1187 15.0008 16.724 13.5185C17.1215 12.5453 17.7246 11.6509 18.5067 10.897C20.0032 9.45456 22.033 8.6442 24.1494 8.6442C26.2659 8.6442 28.2957 9.45456 29.7922 10.897C31.2887 12.3394 32.1294 14.2959 32.1294 16.3358H40.1095Z" fill="#848A8F"/>
<path d="M30.9156 22.2225C31.7177 20.3561 32.1306 18.3558 32.1306 16.3357H40.1097C40.1097 24.8315 32.9641 31.7187 24.1497 31.7187C22.7693 31.7187 21.4297 31.5499 20.1523 31.2323C20.8751 31.0529 21.5855 30.8243 22.2781 30.5478C24.2145 29.7747 25.9739 28.6417 27.4559 27.2132C28.938 25.7847 30.1136 24.0889 30.9156 22.2225Z" fill="#848A8F"/>
<path d="M0.208984 16.3357C0.208984 18.3559 0.621802 20.3562 1.42386 22.2226C2.22593 24.089 3.40153 25.7848 4.88356 27.2133C6.36558 28.6417 8.125 29.7748 10.0614 30.5479C11.9977 31.321 14.0731 31.7188 16.169 31.7188C18.2648 31.7188 20.3402 31.321 22.2766 30.5479C24.213 29.7748 25.9724 28.6417 27.4544 27.2133C28.9364 25.7848 30.112 24.089 30.9141 22.2226C31.7162 20.3562 32.129 18.3559 32.129 16.3357H27.1414C25.4887 16.3357 24.1998 17.6707 23.5944 19.1529C23.5772 19.1951 23.5595 19.2372 23.5415 19.2792C23.1405 20.2123 22.5527 21.0603 21.8117 21.7745C21.0707 22.4887 20.1909 23.0553 19.2228 23.4418C18.2547 23.8284 17.217 24.0273 16.169 24.0273C15.121 24.0273 14.0833 23.8284 13.1152 23.4418C12.147 23.0553 11.2673 22.4887 10.5263 21.7745C9.78525 21.0603 9.19746 20.2123 8.79643 19.2792C8.39539 18.346 8.18898 17.3458 8.18898 16.3357H0.208984Z" fill="#848A8F"/>
<path d="M0.212891 16.3358C0.212891 7.83988 7.3584 0.952637 16.1728 0.952637C17.5529 0.952637 18.892 1.12146 20.1693 1.43886C17.4286 2.11938 14.9004 3.49656 12.865 5.45826C9.87194 8.34313 8.19046 12.2559 8.19046 16.3358H0.212891Z" fill="#848A8F"/>
</g>
<defs>
<clipPath id="clip0_324_58">
<rect width="164.614" height="31.7328" fill="white" transform="translate(0.208984 0.952637)"/>
</clipPath>
</defs>
</svg>
