<svg width="152" height="38" viewBox="0 0 152 38" fill="none" xmlns="http://www.w3.org/2000/svg">
<g clip-path="url(#clip0_324_72)">
<path d="M45.7471 26.7149H56.3443V23.4933H49.5136V11.3584H45.7471V26.7149Z" fill="#848A8F"/>
<path d="M62.6218 24.5672C61.111 24.5672 60.3236 23.2356 60.3236 21.2382C60.3236 19.2407 61.111 17.8877 62.6218 17.8877C64.1327 17.8877 64.9413 19.2407 64.9413 21.2382C64.9413 23.2356 64.1327 24.5672 62.6218 24.5672ZM62.6431 27.0586C66.1543 27.0586 68.4524 24.5457 68.4524 21.2382C68.4524 17.9306 66.1543 15.4177 62.6431 15.4177C59.1533 15.4177 56.8125 17.9306 56.8125 21.2382C56.8125 24.5457 59.1533 27.0586 62.6431 27.0586Z" fill="#848A8F"/>
<path d="M74.5305 30.5163C76.1478 30.5163 77.5735 30.1511 78.5311 29.292C79.4036 28.4974 79.9781 27.2946 79.9781 25.6408V15.7182H76.6585V16.8994H76.6159C75.9776 15.9759 74.9987 15.396 73.5517 15.396C70.8492 15.396 68.9766 17.6726 68.9766 20.8943C68.9766 24.2663 71.2535 26.1133 73.7006 26.1133C75.02 26.1133 75.8499 25.5764 76.4883 24.8462H76.5734V25.9415C76.5734 27.2731 75.9563 28.0463 74.488 28.0463C73.3389 28.0463 72.7643 27.5524 72.5728 26.9725H69.2106C69.5511 29.2706 71.5301 30.5163 74.5305 30.5163ZM74.5093 23.5146C73.2112 23.5146 72.36 22.4407 72.36 20.7869C72.36 19.1116 73.2112 18.0377 74.5093 18.0377C75.9563 18.0377 76.7223 19.2835 76.7223 20.7654C76.7223 22.3118 76.0201 23.5146 74.5093 23.5146Z" fill="#848A8F"/>
<path d="M86.8054 24.5675C85.2946 24.5675 84.5072 23.2358 84.5072 21.2384C84.5072 19.241 85.2946 17.8879 86.8054 17.8879C88.3163 17.8879 89.1245 19.241 89.1245 21.2384C89.1245 23.2358 88.3163 24.5675 86.8054 24.5675ZM86.8267 27.0589C90.3375 27.0589 92.6357 24.546 92.6357 21.2384C92.6357 17.9309 90.3375 15.418 86.8267 15.418C83.3368 15.418 80.9961 17.9309 80.9961 21.2384C80.9961 24.546 83.3368 27.0589 86.8267 27.0589Z" fill="#848A8F"/>
<path d="M93.6465 26.7149H97.1151V15.7184H93.6465V26.7149ZM93.6465 14.1934H97.1151V11.3584H93.6465V14.1934Z" fill="#848A8F"/>
<path d="M98.6211 30.3444H102.09V25.5764H102.132C102.813 26.4999 103.813 27.0584 105.218 27.0584C108.069 27.0584 109.963 24.7817 109.963 21.2164C109.963 17.9089 108.197 15.396 105.303 15.396C103.813 15.396 102.749 16.0618 102.005 17.0498H101.941V15.7182H98.6211V30.3444ZM104.324 24.3522C102.834 24.3522 101.983 23.128 101.983 21.3453C101.983 19.5627 102.749 18.2096 104.26 18.2096C105.75 18.2096 106.452 19.4553 106.452 21.3453C106.452 23.2139 105.643 24.3522 104.324 24.3522Z" fill="#848A8F"/>
<path d="M115.609 27.0584C118.461 27.0584 120.567 25.8127 120.567 23.4072C120.567 20.5936 118.312 20.0996 116.397 19.7774C115.013 19.5197 113.779 19.4123 113.779 18.6391C113.779 17.9518 114.439 17.6297 115.29 17.6297C116.248 17.6297 116.907 17.9304 117.035 18.9183H120.227C120.057 16.7491 118.397 15.396 115.311 15.396C112.736 15.396 110.608 16.5987 110.608 18.9183C110.608 21.4957 112.63 22.0111 114.524 22.3333C115.971 22.591 117.29 22.6984 117.29 23.6864C117.29 24.3951 116.631 24.7817 115.588 24.7817C114.439 24.7817 113.715 24.2448 113.588 23.1494H110.311C110.417 25.5764 112.417 27.0584 115.609 27.0584Z" fill="#848A8F"/>
<path d="M125.281 27.037C126.792 27.037 127.75 26.4356 128.537 25.3617H128.601V26.7148H131.921V15.7183H128.452V21.8609C128.452 23.171 127.729 24.0731 126.537 24.0731C125.43 24.0731 124.898 23.4073 124.898 22.2045V15.7183H121.451V22.9348C121.451 25.3832 122.771 27.037 125.281 27.037Z" fill="#848A8F"/>
<path d="M133.427 26.715H136.895V20.5509C136.895 19.2407 137.534 18.3172 138.619 18.3172C139.662 18.3172 140.151 19.0045 140.151 20.1858V26.715H143.62V20.5509C143.62 19.2407 144.237 18.3172 145.343 18.3172C146.386 18.3172 146.875 19.0045 146.875 20.1858V26.715H150.344V19.5629C150.344 17.093 149.11 15.3962 146.641 15.3962C145.237 15.3962 144.067 15.9976 143.215 17.3292H143.173C142.62 16.148 141.534 15.3962 140.109 15.3962C138.534 15.3962 137.491 16.148 136.81 17.2863H136.746V15.7184H133.427V26.715Z" fill="#848A8F"/>
<path fill-rule="evenodd" clip-rule="evenodd" d="M18.1031 36.559C27.8969 36.559 35.8361 28.5458 35.8361 18.661C35.8361 8.77616 27.8969 0.762939 18.1031 0.762939C8.30944 0.762939 0.370117 8.77616 0.370117 18.661C0.370117 28.5458 8.30944 36.559 18.1031 36.559ZM20.8402 14.5915C22.3517 13.0658 22.3517 10.5922 20.8402 9.06643C19.3285 7.54073 16.8777 7.54073 15.3661 9.06643C13.8545 10.5922 13.8545 13.0658 15.3661 14.5915L18.1031 17.3539L20.8402 14.5915ZM22.1351 21.4235C23.6468 22.9492 26.0976 22.9492 27.6092 21.4235C29.1208 19.8978 29.1208 17.4242 27.6092 15.8985C26.0976 14.3728 23.6468 14.3728 22.1351 15.8985L19.3981 18.661L22.1351 21.4235ZM20.8402 28.2556C22.3517 26.7298 22.3517 24.2562 20.8402 22.7305L18.1031 19.968L15.3661 22.7305C13.8545 24.2562 13.8545 26.7298 15.3661 28.2556C16.8777 29.7813 19.3285 29.7813 20.8402 28.2556ZM8.59702 21.4235C7.08542 19.8978 7.08542 17.4242 8.59702 15.8985C10.1087 14.3728 12.5595 14.3728 14.0711 15.8985L16.8081 18.661L14.0711 21.4235C12.5595 22.9492 10.1087 22.9492 8.59702 21.4235Z" fill="#848A8F"/>
</g>
<defs>
<clipPath id="clip0_324_72">
<rect width="150.731" height="36.691" fill="white" transform="translate(0.28125 0.473389)"/>
</clipPath>
</defs>
</svg>
