<svg width="168" height="38" viewBox="0 0 168 38" fill="none" xmlns="http://www.w3.org/2000/svg">
<path d="M18.1315 5.47811V0H0.859375V37.6378H18.1315V32.1597C14.5933 32.1597 11.2 30.7541 8.69815 28.2522C6.19626 25.7503 4.79072 22.3571 4.79072 18.8189C4.79072 15.2807 6.19626 11.8874 8.69815 9.38555C11.2 6.88366 14.5933 5.47811 18.1315 5.47811Z" fill="#848A8F"/>
<path d="M18.1309 5.47925V32.1609C21.6691 32.1609 25.0624 30.7553 27.5643 28.2534C30.0662 25.7515 31.4717 22.3583 31.4717 18.8201C31.4717 15.2819 30.0662 11.8885 27.5643 9.38669C25.0624 6.8848 21.6691 5.47925 18.1309 5.47925Z" fill="#848A8F"/>
<path d="M41.166 8.83032H45.0329V27.4559H41.166V8.83032Z" fill="#848A8F"/>
<path d="M47.1979 21.0755C47.1979 19.7355 47.5958 18.4257 48.3411 17.312C49.0863 16.1983 50.1455 15.331 51.3843 14.8199C52.6231 14.309 53.9857 14.1772 55.2994 14.4415C56.6131 14.7057 57.8188 15.3541 58.7636 16.3043C59.7085 17.2546 60.35 18.464 60.6067 19.7792C60.8634 21.0945 60.7239 22.4563 60.2057 23.6921C59.6876 24.9279 58.8143 25.9821 57.6964 26.7209C56.5785 27.4599 55.2663 27.8502 53.9263 27.8426C53.0375 27.8496 52.1563 27.679 51.3343 27.3408C50.5123 27.0027 49.766 26.5039 49.1393 25.8737C48.5126 25.2434 48.0182 24.4943 47.6847 23.6703C47.3514 22.8464 47.1859 21.9643 47.1979 21.0755ZM56.8909 21.0755C56.8757 20.4978 56.6905 19.9374 56.3584 19.4644C56.0264 18.9914 55.5624 18.6267 55.0241 18.4161C54.486 18.2055 53.8977 18.1582 53.3328 18.2803C52.7679 18.4022 52.2515 18.688 51.8482 19.102C51.4449 19.5159 51.1725 20.0395 51.0653 20.6074C50.958 21.1753 51.0206 21.7622 51.2451 22.2946C51.4696 22.8271 51.8461 23.2817 52.3277 23.6013C52.8091 23.9209 53.3741 24.0915 53.9521 24.0917C54.3456 24.0994 54.7364 24.0258 55.1001 23.8755C55.4639 23.7254 55.7927 23.5017 56.0661 23.2187C56.3395 22.9356 56.5515 22.5991 56.6891 22.2304C56.8266 21.8617 56.8865 21.4685 56.8651 21.0755H56.8909Z" fill="#848A8F"/>
<path d="M75.9527 14.6951V26.8243C75.9527 31.1037 72.6014 32.9211 69.2114 32.9211C68.0156 33.0192 66.8162 32.7817 65.7483 32.2351C64.6803 31.6886 63.786 30.8548 63.1661 29.8276L66.4272 27.9457C66.6915 28.4786 67.1118 28.9181 67.6323 29.2059C68.1528 29.4938 68.7485 29.6162 69.3403 29.5569C69.7173 29.6033 70.0999 29.566 70.4606 29.4474C70.8216 29.3287 71.1517 29.1318 71.4275 28.8707C71.7035 28.6095 71.9182 28.2908 72.0565 27.937C72.1948 27.5833 72.2532 27.2033 72.2276 26.8243V25.6514C71.7776 26.197 71.2066 26.6301 70.56 26.9165C69.9134 27.2029 69.2089 27.3346 68.5025 27.3012C66.7932 27.3012 65.154 26.6222 63.9453 25.4135C62.7366 24.205 62.0576 22.5657 62.0576 20.8564C62.0576 19.1471 62.7366 17.5079 63.9453 16.2993C65.154 15.0906 66.7932 14.4116 68.5025 14.4116C69.2089 14.3782 69.9134 14.5099 70.56 14.7963C71.2066 15.0827 71.7776 15.5158 72.2276 16.0614V14.7725L75.9527 14.6951ZM72.2276 20.8177C72.2532 20.2011 72.0939 19.5908 71.77 19.0654C71.4461 18.54 70.9725 18.1235 70.4099 17.8695C69.8474 17.6154 69.2218 17.5355 68.6134 17.6399C68.0052 17.7443 67.4419 18.0283 66.9963 18.4553C66.5507 18.8823 66.243 19.433 66.1128 20.0364C65.9827 20.6397 66.0359 21.2681 66.2657 21.8409C66.4957 22.4137 66.8916 22.9047 67.4027 23.2507C67.9139 23.5966 68.5169 23.7818 69.134 23.7824C69.5368 23.8114 69.9412 23.7555 70.3209 23.6187C70.7008 23.4816 71.0478 23.2665 71.3392 22.9871C71.6308 22.7077 71.8605 22.3703 72.0135 21.9966C72.1665 21.6229 72.2394 21.2213 72.2276 20.8177Z" fill="#848A8F"/>
<path d="M78.1352 21.0757C78.1352 19.7367 78.5325 18.4279 79.2766 17.3147C80.0207 16.2016 81.0783 15.3342 82.3156 14.8225C83.5529 14.3107 84.9141 14.1774 86.2272 14.4396C87.5403 14.7018 88.746 15.3475 89.692 16.2952C90.6378 17.243 91.2813 18.4499 91.5409 19.7634C91.8006 21.077 91.6647 22.438 91.1506 23.6743C90.6364 24.9106 89.767 25.9665 88.6525 26.7086C87.538 27.4507 86.2284 27.8453 84.8894 27.8428C83.999 27.8514 83.1157 27.6822 82.2915 27.345C81.4673 27.0078 80.7187 26.5095 80.0897 25.8792C79.4605 25.2489 78.9636 24.4993 78.628 23.6745C78.2925 22.8497 78.1249 21.9661 78.1352 21.0757ZM87.8282 21.0757C87.813 20.4975 87.6274 19.9365 87.2949 19.4632C86.9623 18.99 86.4974 18.6254 85.9585 18.4151C85.4195 18.2049 84.8306 18.1584 84.2654 18.2815C83.7002 18.4044 83.1838 18.6916 82.781 19.1068C82.3782 19.522 82.1069 20.0468 82.0012 20.6155C81.8954 21.1842 81.9597 21.7715 82.1862 22.3037C82.4126 22.836 82.7912 23.2896 83.2745 23.6077C83.7576 23.9257 84.3238 24.0942 84.9023 24.0919C85.2958 24.0996 85.6866 24.026 86.0504 23.8757C86.4141 23.7256 86.7429 23.5019 87.0163 23.2189C87.2897 22.9358 87.5017 22.5993 87.6393 22.2306C87.7768 21.8618 87.8368 21.4687 87.8154 21.0757H87.8282Z" fill="#848A8F"/>
<path d="M93.4326 11.2792C93.4326 10.8255 93.5672 10.3818 93.8193 10.0046C94.0714 9.62724 94.4298 9.33317 94.8489 9.15951C95.2682 8.98586 95.7296 8.94042 96.1746 9.02895C96.6196 9.11747 97.0284 9.33599 97.3494 9.65687C97.6702 9.97776 97.8887 10.3866 97.9772 10.8316C98.0658 11.2766 98.0203 11.738 97.8467 12.1573C97.6731 12.5764 97.3789 12.9348 97.0016 13.1869C96.6244 13.439 96.1808 13.5736 95.727 13.5736C95.1205 13.5669 94.5409 13.323 94.112 12.8942C93.6832 12.4653 93.4393 11.8857 93.4326 11.2792ZM93.8064 14.695H97.6733V27.4558H93.8064V14.695Z" fill="#848A8F"/>
<path d="M114.225 21.0754C114.268 21.924 114.143 22.7729 113.857 23.5731C113.571 24.3733 113.13 25.1091 112.559 25.7379C111.987 26.367 111.297 26.8766 110.528 27.2378C109.759 27.5989 108.925 27.8044 108.077 27.8424C107.356 27.8904 106.634 27.775 105.965 27.505C105.295 27.2348 104.695 26.8171 104.21 26.2828V32.5858H100.343V14.695H104.21V15.8937C104.696 15.361 105.296 14.9452 105.966 14.6773C106.636 14.4093 107.357 14.2964 108.077 14.347C108.922 14.385 109.752 14.5893 110.518 14.948C111.285 15.3067 111.973 15.813 112.544 16.4378C113.115 17.0625 113.558 17.7936 113.846 18.5895C114.134 19.3851 114.263 20.2298 114.225 21.0754ZM110.358 21.0754C110.343 20.4766 110.151 19.8958 109.807 19.4056C109.463 18.9154 108.982 18.5375 108.425 18.3195C107.867 18.1015 107.257 18.053 106.672 18.18C106.087 18.3069 105.552 18.6039 105.135 19.0335C104.718 19.4631 104.436 20.0063 104.327 20.5951C104.217 21.1838 104.283 21.7918 104.518 22.3429C104.752 22.894 105.144 23.3637 105.644 23.6931C106.144 24.0226 106.73 24.197 107.329 24.1947C107.739 24.2121 108.148 24.1426 108.53 23.9907C108.911 23.8389 109.256 23.6082 109.542 23.3136C109.828 23.0191 110.049 22.6674 110.189 22.2817C110.33 21.8959 110.387 21.4849 110.358 21.0754Z" fill="#848A8F"/>
<path d="M125.993 23.627C125.993 26.5658 123.415 27.8161 120.682 27.8161C119.568 27.9164 118.449 27.6801 117.47 27.1379C116.491 26.5956 115.697 25.7722 115.191 24.7742L118.517 22.8923C118.649 23.3522 118.934 23.7529 119.326 24.0275C119.718 24.302 120.192 24.4336 120.67 24.4004C121.585 24.4004 122.049 24.1168 122.049 23.6012C122.049 22.1962 115.771 22.9438 115.771 18.5227C115.771 15.7385 118.117 14.3464 120.773 14.3464C121.782 14.3012 122.785 14.5302 123.674 15.0091C124.564 15.4879 125.307 16.1988 125.825 17.0662L122.5 18.8191C122.353 18.4866 122.113 18.2038 121.809 18.0048C121.504 17.8058 121.149 17.6992 120.786 17.6977C120.115 17.6977 119.716 17.9555 119.716 18.4067C119.716 19.8761 125.993 18.9094 125.993 23.627Z" fill="#848A8F"/>
<path d="M140.002 14.6946V27.4554H136.135V26.2566C135.695 26.7873 135.137 27.2071 134.507 27.4825C133.875 27.758 133.188 27.8811 132.5 27.842C129.922 27.842 127.718 25.9988 127.718 22.5573V14.6946H131.585V21.9772C131.554 22.2817 131.59 22.5891 131.69 22.8784C131.791 23.1675 131.952 23.4315 132.163 23.6521C132.376 23.8727 132.634 24.0446 132.919 24.1561C133.204 24.2675 133.509 24.3157 133.815 24.2974C135.207 24.2974 136.186 23.4724 136.186 21.7194V14.6946H140.002Z" fill="#848A8F"/>
<path d="M161.916 19.619V27.4559H158.049V19.9541C158.049 18.6651 157.444 17.866 156.219 17.866C154.995 17.866 154.221 18.7554 154.221 20.2635V27.4559H150.354V19.9541C150.354 18.6651 149.748 17.866 148.524 17.866C147.299 17.866 146.526 18.7554 146.526 20.2635V27.4559H142.659V14.6951H146.526V15.8681C146.927 15.3499 147.449 14.9395 148.048 14.674C148.646 14.4085 149.303 14.2961 149.955 14.3471C150.608 14.3129 151.26 14.4496 151.846 14.7433C152.431 15.0371 152.93 15.478 153.293 16.0228C153.719 15.4536 154.281 15.0014 154.928 14.7084C155.573 14.4153 156.285 14.291 156.992 14.3471C160.009 14.3471 161.916 16.4352 161.916 19.619Z" fill="#848A8F"/>
<path d="M165.164 14.6177C166.73 14.6177 168 13.3481 168 11.782C168 10.2159 166.73 8.94629 165.164 8.94629C163.598 8.94629 162.328 10.2159 162.328 11.782C162.328 13.3481 163.598 14.6177 165.164 14.6177Z" fill="#848A8F"/>
</svg>
