<svg width="163" height="33" viewBox="0 0 163 33" fill="none" xmlns="http://www.w3.org/2000/svg">
<path d="M47.5691 22.9474C47.5691 23.7466 47.4039 24.3607 47.0737 24.7897C46.752 25.2188 46.2144 25.4333 45.4608 25.4333C44.7495 25.4333 44.2458 25.2188 43.9494 24.7897C43.6615 24.3607 43.5176 23.7466 43.5176 22.9474V9.60945C43.5176 8.81024 43.6615 8.19614 43.9494 7.7671C44.2458 7.33806 44.7495 7.12354 45.4608 7.12354C46.2144 7.12354 46.752 7.33806 47.0737 7.7671C47.4039 8.19614 47.5691 8.81024 47.5691 9.60945V22.9474Z" fill="#848A8F"/>
<path d="M48.7979 19.0739C48.7979 18.1821 48.9418 17.3409 49.2297 16.5501C49.5261 15.7509 49.9663 15.0527 50.5506 14.4554C51.1433 13.8581 51.8799 13.3828 52.7605 13.0295C53.6496 12.6761 54.691 12.4995 55.8849 12.4995C57.028 12.4995 58.0398 12.6635 58.9204 12.9916C59.801 13.3197 60.5418 13.7782 61.1429 14.3671C61.7441 14.9475 62.2013 15.6415 62.5147 16.4491C62.8279 17.2483 62.9846 18.1232 62.9846 19.0739C62.9846 19.9572 62.8363 20.7942 62.54 21.585C62.2437 22.3673 61.7991 23.0572 61.2064 23.6545C60.6138 24.2433 59.8729 24.7144 58.9839 25.0678C58.0947 25.4127 57.0618 25.5851 55.8849 25.5851C54.7249 25.5851 53.7004 25.4211 52.8112 25.093C51.9307 24.7565 51.1899 24.298 50.5887 23.7175C49.996 23.1287 49.5472 22.4389 49.2424 21.6481C48.946 20.8489 48.7979 19.9908 48.7979 19.0739ZM53.0272 19.0739C53.0272 19.6291 53.078 20.1591 53.1796 20.6638C53.2812 21.1601 53.4421 21.5976 53.6622 21.9762C53.8908 22.3547 54.1872 22.6576 54.5513 22.8847C54.9154 23.1034 55.3599 23.2128 55.8849 23.2128C56.3675 23.2128 56.7866 23.1119 57.1422 22.9099C57.5063 22.7081 57.8027 22.4262 58.0313 22.0645C58.2684 21.7028 58.4462 21.2695 58.5647 20.7648C58.6832 20.2516 58.7425 19.688 58.7425 19.0739C58.7425 18.5186 58.6875 17.9928 58.5775 17.4965C58.4758 16.9918 58.3107 16.5501 58.0821 16.1715C57.8535 15.7846 57.5572 15.4817 57.193 15.263C56.8374 15.0359 56.4013 14.9223 55.8849 14.9223C55.3683 14.9223 54.9281 15.0316 54.564 15.2504C54.1999 15.4691 53.9036 15.7677 53.6749 16.1463C53.4463 16.5249 53.2812 16.9665 53.1796 17.4713C53.078 17.976 53.0272 18.5102 53.0272 19.0739Z" fill="#848A8F"/>
<path d="M73.4114 22.9975C73.1827 23.4181 72.9033 23.7756 72.5731 24.0701C72.2514 24.3645 71.8915 24.6085 71.4937 24.802C71.1041 24.987 70.685 25.1258 70.2362 25.2184C69.7959 25.3025 69.343 25.3446 68.8773 25.3446C68.0982 25.3446 67.3871 25.2058 66.7435 24.9281C66.1001 24.6505 65.5455 24.2509 65.0798 23.7294C64.6225 23.1994 64.2669 22.5516 64.0129 21.7861C63.7589 21.0205 63.6318 20.1456 63.6318 19.1614C63.6318 18.236 63.7504 17.3695 63.9875 16.5619C64.2246 15.7543 64.5675 15.0519 65.0163 14.4546C65.4735 13.8573 66.0323 13.3862 66.6928 13.0413C67.3531 12.6964 68.1068 12.5239 68.9535 12.5239C69.9187 12.5239 70.7739 12.709 71.519 13.0791C72.2726 13.4493 72.9204 14.055 73.4623 14.8962V14.5682C73.4623 13.9625 73.6273 13.5082 73.9575 13.2053C74.2962 12.8941 74.7619 12.7384 75.3547 12.7384C75.7103 12.7384 76.0108 12.7973 76.2564 12.9151C76.5019 13.0245 76.6966 13.1927 76.8405 13.4199C76.9846 13.6386 77.0861 13.912 77.1454 14.2401C77.2131 14.5597 77.247 14.9257 77.247 15.3379V23.7925C77.247 24.8188 77.1158 25.7357 76.8533 26.5433C76.5993 27.3509 76.2013 28.0324 75.6594 28.5876C75.1175 29.1428 74.4232 29.5634 73.5765 29.8495C72.7298 30.1439 71.7222 30.2911 70.5538 30.2911C69.7325 30.2911 69.0043 30.2533 68.3692 30.1775C67.7427 30.1103 67.2008 30.0051 66.7435 29.8621C66.2864 29.7022 65.9392 29.5256 65.7021 29.3321C65.4735 29.1386 65.3592 28.8862 65.3592 28.575C65.3592 28.3983 65.3845 28.2301 65.4354 28.0702C65.4862 27.9104 65.5624 27.7674 65.6639 27.6412C65.7741 27.5234 65.9138 27.4267 66.0832 27.3509C66.2609 27.2837 66.4768 27.25 66.7308 27.25C67.0018 27.25 67.2727 27.2668 67.5437 27.3005C67.8231 27.3341 68.111 27.3678 68.4073 27.4014C68.7121 27.4435 69.0297 27.4813 69.3599 27.515C69.6986 27.5486 70.0626 27.5655 70.4521 27.5655C70.9178 27.5655 71.3327 27.5192 71.6969 27.4267C72.0609 27.3341 72.3699 27.1701 72.6239 26.9345C72.878 26.699 73.0727 26.3835 73.2082 25.9881C73.3437 25.6011 73.4114 25.1048 73.4114 24.4991V22.9975ZM73.4114 19.0731C73.4114 18.4589 73.3648 17.8995 73.2717 17.3948C73.1871 16.89 73.0388 16.461 72.8272 16.1076C72.6155 15.7459 72.3319 15.4683 71.9763 15.2748C71.6206 15.0729 71.1761 14.972 70.6427 14.972C70.1177 14.972 69.6817 15.0771 69.3345 15.2874C68.9958 15.4977 68.7249 15.788 68.5217 16.1581C68.3185 16.5283 68.1745 16.9615 68.0898 17.4579C68.0136 17.9542 67.9756 18.4842 67.9756 19.0478C67.9756 20.3349 68.2041 21.3024 68.6614 21.9501C69.1185 22.5979 69.7832 22.9218 70.6553 22.9218C71.0618 22.9134 71.4301 22.8376 71.7603 22.6946C72.099 22.5432 72.3911 22.3119 72.6366 22.0006C72.8822 21.6893 73.0727 21.2939 73.2082 20.8144C73.3437 20.3349 73.4114 19.7545 73.4114 19.0731Z" fill="#848A8F"/>
<path d="M78.4121 19.0739C78.4121 18.1821 78.556 17.3409 78.8439 16.5501C79.1403 15.7509 79.5805 15.0527 80.1648 14.4554C80.7575 13.8581 81.4941 13.3828 82.3747 13.0295C83.2638 12.6761 84.3052 12.4995 85.4991 12.4995C86.6421 12.4995 87.6539 12.6635 88.5345 12.9916C89.4151 13.3197 90.156 13.7782 90.7571 14.3671C91.3583 14.9475 91.8156 15.6415 92.1288 16.4491C92.4421 17.2483 92.5987 18.1232 92.5987 19.0739C92.5987 19.9572 92.4506 20.7942 92.1542 21.585C91.8578 22.3673 91.4134 23.0572 90.8206 23.6545C90.2279 24.2433 89.487 24.7144 88.598 25.0678C87.709 25.4127 86.676 25.5851 85.4991 25.5851C84.339 25.5851 83.3145 25.4211 82.4255 25.093C81.5449 24.7565 80.804 24.298 80.2029 23.7175C79.6102 23.1287 79.1614 22.4389 78.8566 21.6481C78.5603 20.8489 78.4121 19.9908 78.4121 19.0739ZM82.6414 19.0739C82.6414 19.6291 82.6922 20.1591 82.7939 20.6638C82.8954 21.1601 83.0563 21.5976 83.2765 21.9762C83.5051 22.3547 83.8014 22.6576 84.1655 22.8847C84.5296 23.1034 84.9741 23.2128 85.4991 23.2128C85.9817 23.2128 86.4008 23.1119 86.7564 22.9099C87.1205 22.7081 87.4169 22.4262 87.6455 22.0645C87.8826 21.7028 88.0603 21.2695 88.1789 20.7648C88.2975 20.2516 88.3568 19.688 88.3568 19.0739C88.3568 18.5186 88.3017 17.9928 88.1916 17.4965C88.09 16.9918 87.9249 16.5501 87.6963 16.1715C87.4677 15.7846 87.1713 15.4817 86.8073 15.263C86.4517 15.0359 86.0155 14.9223 85.4991 14.9223C84.9826 14.9223 84.5422 15.0316 84.1782 15.2504C83.8142 15.4691 83.5177 15.7677 83.2892 16.1463C83.0606 16.5249 82.8954 16.9665 82.7939 17.4713C82.6922 17.976 82.6414 18.5102 82.6414 19.0739Z" fill="#848A8F"/>
<path d="M98.0458 8.24706C98.0458 8.52468 97.9823 8.77284 97.8553 8.99157C97.7282 9.20188 97.5632 9.3785 97.36 9.52161C97.1568 9.66461 96.9196 9.7739 96.6487 9.8496C96.3863 9.9169 96.1153 9.9506 95.8358 9.9506C95.5395 9.9506 95.2559 9.9127 94.9849 9.837C94.7225 9.7613 94.4897 9.65201 94.2864 9.5089C94.0832 9.3575 93.9223 9.17664 93.8037 8.96633C93.6853 8.75602 93.626 8.51626 93.626 8.24706C93.626 8.0031 93.681 7.78017 93.791 7.57827C93.9096 7.36796 94.0662 7.18709 94.261 7.03566C94.4557 6.88424 94.6886 6.76646 94.9596 6.68234C95.2305 6.59821 95.5268 6.55615 95.8486 6.55615C96.128 6.55615 96.399 6.59401 96.6615 6.66972C96.9324 6.74543 97.1694 6.85479 97.3726 6.99781C97.5759 7.14082 97.7368 7.31748 97.8553 7.52779C97.9823 7.73811 98.0458 7.97786 98.0458 8.24706ZM97.8553 22.9479C97.8553 23.7471 97.6902 24.3612 97.36 24.7902C97.0382 25.2193 96.5005 25.4338 95.747 25.4338C95.0358 25.4338 94.5319 25.2193 94.2356 24.7902C93.9478 24.3612 93.8037 23.7471 93.8037 22.9479V15.2252C93.8037 14.426 93.9478 13.8119 94.2356 13.3829C94.5319 12.9539 95.0358 12.7393 95.747 12.7393C96.5005 12.7393 97.0382 12.9539 97.36 13.3829C97.6902 13.8119 97.8553 14.426 97.8553 15.2252V22.9479Z" fill="#848A8F"/>
<path d="M103.695 19.0478C103.695 19.6115 103.737 20.1372 103.822 20.6252C103.915 21.1131 104.068 21.5421 104.279 21.9123C104.499 22.274 104.787 22.56 105.143 22.7703C105.507 22.9807 105.956 23.0858 106.489 23.0858C106.98 23.0858 107.391 22.9849 107.721 22.783C108.06 22.5727 108.331 22.2866 108.534 21.9249C108.737 21.5547 108.881 21.1215 108.966 20.6252C109.059 20.1288 109.105 19.5904 109.105 19.01C109.105 18.5473 109.072 18.0762 109.004 17.5967C108.936 17.1087 108.81 16.6671 108.623 16.2717C108.437 15.8763 108.179 15.5524 107.848 15.3C107.518 15.0477 107.086 14.9215 106.553 14.9215C106.019 14.9215 105.566 15.0056 105.194 15.1739C104.83 15.3421 104.533 15.5987 104.305 15.9436C104.084 16.2885 103.928 16.7218 103.835 17.2433C103.742 17.7565 103.695 18.358 103.695 19.0478ZM103.682 15.2243C103.894 14.7785 104.165 14.3873 104.495 14.0508C104.825 13.7143 105.19 13.4325 105.587 13.2053C105.985 12.9782 106.4 12.8099 106.832 12.7006C107.273 12.5828 107.708 12.5239 108.14 12.5239C108.919 12.5239 109.622 12.6964 110.249 13.0413C110.875 13.3862 111.409 13.8573 111.849 14.4546C112.297 15.0435 112.641 15.7417 112.878 16.5493C113.114 17.3485 113.234 18.2066 113.234 19.1235C113.234 20.0741 113.106 20.9448 112.852 21.7356C112.607 22.5264 112.255 23.2078 111.798 23.7798C111.349 24.3435 110.807 24.7851 110.172 25.1048C109.545 25.4245 108.848 25.5843 108.077 25.5843C107.129 25.5843 106.282 25.3656 105.537 24.9281C104.792 24.4907 104.173 23.8766 103.682 23.0858V27.6286C103.682 28.4277 103.517 29.0419 103.187 29.4709C102.865 29.8999 102.328 30.1145 101.574 30.1145C100.863 30.1145 100.359 29.8999 100.063 29.4709C99.7748 29.0419 99.6309 28.4277 99.6309 27.6286V15.2243C99.6309 14.4251 99.7748 13.811 100.063 13.382C100.359 12.953 100.863 12.7384 101.574 12.7384C102.328 12.7384 102.865 12.953 103.187 13.382C103.517 13.811 103.682 14.4251 103.682 15.2243Z" fill="#848A8F"/>
<path d="M117.701 16.1211C117.701 16.4491 117.845 16.7057 118.132 16.8908C118.421 17.0675 118.818 17.2147 119.327 17.3325C119.809 17.4418 120.304 17.547 120.813 17.6479C121.321 17.7489 121.816 17.8667 122.299 18.0013C122.781 18.1274 123.234 18.2789 123.658 18.4555C124.08 18.6322 124.453 18.8551 124.775 19.1243C125.097 19.3851 125.351 19.7048 125.537 20.0833C125.723 20.4535 125.817 20.8994 125.817 21.4209C125.817 22.0771 125.681 22.6618 125.41 23.1749C125.139 23.6797 124.754 24.1087 124.255 24.4621C123.764 24.8154 123.175 25.0888 122.489 25.2823C121.803 25.4758 121.046 25.5767 120.215 25.5851C119.429 25.5851 118.67 25.5347 117.942 25.4337C117.214 25.3412 116.566 25.1939 115.998 24.992C115.44 24.7901 114.992 24.542 114.652 24.2475C114.314 23.9447 114.145 23.5914 114.145 23.1876C114.145 22.8342 114.259 22.5608 114.488 22.3673C114.716 22.1739 115.008 22.0771 115.364 22.0771C115.5 22.0771 115.66 22.1023 115.847 22.1528C116.033 22.2033 116.236 22.2664 116.456 22.3421C116.676 22.4178 116.909 22.5019 117.155 22.5945C117.408 22.6786 117.671 22.7543 117.942 22.8216C118.281 22.9142 118.628 22.9899 118.983 23.0488C119.347 23.0992 119.72 23.1245 120.102 23.1245C120.338 23.1245 120.571 23.1034 120.8 23.0614C121.028 23.0109 121.232 22.9394 121.41 22.8469C121.596 22.7459 121.748 22.6197 121.867 22.4683C121.985 22.3169 122.057 22.1318 122.083 21.9131C122.108 21.8626 122.129 21.8121 122.146 21.7616C122.163 21.7112 122.172 21.6523 122.172 21.585C122.172 21.3494 122.061 21.1391 121.841 20.954C121.63 20.769 121.329 20.6217 120.939 20.5124C120.287 20.361 119.665 20.2222 119.072 20.096C118.48 19.9698 117.93 19.8352 117.421 19.6922C116.922 19.5492 116.464 19.3851 116.049 19.2C115.643 19.015 115.296 18.7878 115.008 18.5186C114.729 18.2494 114.508 17.9255 114.348 17.547C114.195 17.1684 114.119 16.7099 114.119 16.1715C114.119 15.5911 114.25 15.0737 114.513 14.6194C114.784 14.1567 115.169 13.7698 115.669 13.4585C116.169 13.1472 116.773 12.9117 117.485 12.7519C118.196 12.5836 119.001 12.4995 119.898 12.4995C121.506 12.4995 122.73 12.693 123.569 13.0799C124.415 13.4585 124.839 13.9548 124.839 14.569C124.839 14.9139 124.724 15.1789 124.495 15.3639C124.267 15.5406 123.991 15.6289 123.671 15.6289C123.5 15.6289 123.323 15.5995 123.136 15.5406C122.959 15.4733 122.743 15.4018 122.489 15.3261C122.235 15.242 121.93 15.1705 121.575 15.1116C121.228 15.0443 120.795 15.0106 120.279 15.0106C119.889 15.0106 119.534 15.0274 119.212 15.0611C118.899 15.0947 118.628 15.1536 118.399 15.2377C118.179 15.3219 118.006 15.4354 117.879 15.5785C117.76 15.7215 117.701 15.9023 117.701 16.1211Z" fill="#848A8F"/>
<path d="M130.973 20.7524C130.973 21.1478 131.024 21.4927 131.126 21.7872C131.235 22.0816 131.384 22.3298 131.57 22.5317C131.757 22.7252 131.972 22.8724 132.217 22.9733C132.472 23.0659 132.743 23.1122 133.03 23.1122C133.369 23.1122 133.696 23.0617 134.009 22.9607C134.322 22.8598 134.597 22.7041 134.835 22.4938C135.08 22.2835 135.275 22.0185 135.419 21.6988C135.562 21.3792 135.634 21.0048 135.634 20.5758V15.2254C135.634 14.4262 135.779 13.8121 136.066 13.3831C136.363 12.9541 136.867 12.7395 137.578 12.7395C138.331 12.7395 138.869 12.9541 139.19 13.3831C139.521 13.8121 139.686 14.4262 139.686 15.2254V22.9481C139.686 23.7473 139.521 24.3614 139.19 24.7904C138.869 25.2195 138.331 25.434 137.578 25.434C136.867 25.434 136.363 25.2195 136.066 24.7904C135.779 24.3614 135.634 23.7473 135.634 22.9481C135.457 23.3351 135.224 23.6884 134.935 24.0081C134.656 24.3278 134.326 24.6054 133.945 24.8409C133.572 25.0681 133.158 25.2447 132.701 25.3709C132.252 25.4971 131.764 25.5602 131.24 25.5602C130.673 25.5602 130.127 25.4634 129.601 25.27C129.085 25.0681 128.628 24.7736 128.23 24.3866C127.832 23.9913 127.515 23.5033 127.277 22.9229C127.04 22.3424 126.922 21.6652 126.922 20.8912V15.2254C126.922 14.4262 127.066 13.8121 127.353 13.3831C127.65 12.9541 128.153 12.7395 128.865 12.7395C129.618 12.7395 130.156 12.9541 130.478 13.3831C130.808 13.8121 130.973 14.4262 130.973 15.2254V20.7524Z" fill="#848A8F"/>
<path d="M141.523 15.2243C141.523 14.4251 141.668 13.811 141.956 13.382C142.252 12.953 142.756 12.7384 143.467 12.7384C144.221 12.7384 144.759 12.953 145.08 13.382C145.41 13.811 145.576 14.4251 145.576 15.2243C145.745 14.8205 145.973 14.4546 146.262 14.1265C146.558 13.79 146.893 13.504 147.264 13.2684C147.646 13.0329 148.057 12.852 148.497 12.7258C148.937 12.5912 149.394 12.5239 149.869 12.5239C150.309 12.5239 150.74 12.5828 151.164 12.7006C151.595 12.8099 151.994 12.9908 152.358 13.2432C152.73 13.4871 153.056 13.7984 153.336 14.177C153.615 14.5555 153.831 15.0098 153.984 15.5398C154.246 14.9762 154.555 14.5009 154.91 14.1139C155.266 13.7269 155.652 13.4156 156.066 13.1801C156.481 12.9445 156.913 12.7763 157.362 12.6753C157.819 12.5744 158.276 12.5239 158.733 12.5239C159.275 12.5239 159.792 12.6207 160.283 12.8141C160.782 13.0076 161.218 13.3021 161.591 13.6975C161.972 14.0844 162.273 14.5766 162.493 15.1739C162.721 15.7627 162.835 16.4526 162.835 17.2433V22.947C162.835 23.7462 162.67 24.3603 162.34 24.7893C162.019 25.2184 161.48 25.4329 160.727 25.4329C160.016 25.4329 159.512 25.2184 159.216 24.7893C158.928 24.3603 158.784 23.7462 158.784 22.947V17.42C158.784 17.0414 158.733 16.7049 158.632 16.4105C158.53 16.1076 158.386 15.8553 158.2 15.6534C158.022 15.4431 157.811 15.2874 157.565 15.1865C157.32 15.0771 157.056 15.0224 156.778 15.0224C156.43 15.0224 156.1 15.0771 155.787 15.1865C155.474 15.2958 155.199 15.4641 154.961 15.6912C154.733 15.9184 154.546 16.2086 154.402 16.5619C154.267 16.9152 154.199 17.3401 154.199 17.8364V22.947C154.199 23.7462 154.034 24.3603 153.704 24.7893C153.382 25.2184 152.845 25.4329 152.09 25.4329C151.379 25.4329 150.875 25.2184 150.58 24.7893C150.291 24.3603 150.147 23.7462 150.147 22.947V17.6597C150.147 16.7933 149.965 16.1371 149.602 15.6912C149.245 15.2454 148.759 15.0224 148.141 15.0224C147.777 15.0224 147.438 15.0813 147.124 15.1991C146.811 15.3169 146.54 15.4893 146.312 15.7165C146.083 15.9436 145.901 16.2254 145.765 16.5619C145.639 16.8984 145.576 17.2854 145.576 17.7228V22.947C145.576 23.7462 145.41 24.3603 145.08 24.7893C144.759 25.2184 144.221 25.4329 143.467 25.4329C142.756 25.4329 142.252 25.2184 141.956 24.7893C141.668 24.3603 141.523 23.7462 141.523 22.947V15.2243Z" fill="#848A8F"/>
<path d="M17.1024 23.2795C13.511 23.2795 10.5996 20.3869 10.5996 16.8187C10.5996 13.2505 13.511 10.3579 17.1024 10.3579C20.6937 10.3579 23.6051 13.2505 23.6051 16.8187C23.6051 20.3869 20.6937 23.2795 17.1024 23.2795Z" fill="#848A8F"/>
<path d="M4.50625 19.0259C2.6218 19.3561 1.33012 21.1647 2.05349 22.9248C3.06342 25.3821 4.67461 27.5714 6.76342 29.2823C9.75026 31.7284 13.5175 33.0356 17.3877 32.9685C21.258 32.9014 24.9771 31.4644 27.8763 28.916C29.9036 27.1339 31.437 24.89 32.36 22.3992C33.0211 20.6151 31.6666 18.8524 29.7717 18.5878C27.8769 18.3232 26.1756 19.6936 25.2396 21.3518C24.7323 22.2506 24.0737 23.0661 23.2847 23.7597C21.6213 25.2219 19.4874 26.0463 17.2669 26.0848C15.0463 26.1233 12.8848 25.3734 11.1711 23.9698C10.3582 23.304 9.67136 22.5119 9.13273 21.6312C8.13912 20.0064 6.39069 18.6958 4.50625 19.0259Z" fill="#848A8F"/>
<path d="M33.2337 18.8372C33.3168 18.176 33.3595 17.5023 33.3595 16.8188C33.3595 7.89826 26.081 0.666748 17.1026 0.666748C8.12416 0.666748 0.845703 7.89826 0.845703 16.8188C0.845703 17.696 0.916095 18.5569 1.05158 19.3963C1.79829 18.3807 2.96371 17.6557 4.22254 17.4351C5.58453 17.1965 6.82236 17.5247 7.86897 18.1382C7.80714 17.7072 7.77515 17.2667 7.77515 16.8188C7.77515 11.7006 11.9512 7.55149 17.1026 7.55149C22.254 7.55149 26.43 11.7006 26.43 16.8188C26.43 17.1562 26.4118 17.4895 26.3765 17.8176C27.401 17.168 28.6268 16.7968 29.9966 16.9882C31.262 17.1649 32.4518 17.8486 33.2337 18.8372Z" fill="#848A8F"/>
</svg>
