<svg width="69" height="65" viewBox="0 0 69 65" fill="none" xmlns="http://www.w3.org/2000/svg">
<path d="M68.4623 25.0658C68.4081 24.869 64.395 14.2579 62.6242 9.99374C63.5096 8.93534 64.0455 7.57502 64.0455 6.09258C64.0455 2.7342 61.3113 0 57.953 0C54.5946 0 51.8604 2.7342 51.8604 6.09258C51.8604 9.06085 53.9941 11.5372 56.8098 12.0732L59.0012 21.497C59.2285 22.4774 59.6118 24.1159 59.1097 24.8588C59.0453 24.9538 58.8485 25.2422 58.1633 25.3439C53.6447 26.0156 51.0055 28.2817 50.0048 29.3265L42.2296 26.7653C44.6856 24.6112 46.2393 21.4563 46.2393 17.9419C46.2393 11.4694 40.9745 6.20453 34.5019 6.20453C28.0294 6.20453 22.7646 11.4694 22.7646 17.9419C22.7646 21.4563 24.3182 24.6146 26.7743 26.7653L18.9991 29.3265C17.9984 28.2851 15.3592 26.0156 10.8406 25.3439C10.1554 25.2422 9.9586 24.9538 9.89415 24.8588C9.38869 24.1159 9.77202 22.4774 10.0027 21.497L12.1907 12.0732C15.003 11.5372 17.1401 9.06085 17.1401 6.09258C17.1401 2.7342 14.4093 0 11.0475 0C7.68575 0 4.95834 2.7342 4.95834 6.09258C4.95834 7.57502 5.49432 8.93873 6.37972 9.99374C4.60893 14.2579 0.59244 24.869 0.538163 25.0658C0.161617 26.4498 0.0462785 27.6507 2.0206 30.5206C4.17132 33.6517 15.444 41.6168 17.5608 43.0959L21.3941 64.213C21.4789 64.6743 21.8792 65 22.3337 65C22.3914 65 22.4491 64.9966 22.5067 64.983C23.0258 64.8881 23.3718 64.3928 23.2768 63.8704L19.3756 42.3665C19.3315 42.1189 19.1891 41.895 18.9787 41.7525C15.3015 39.1981 5.36542 32.0098 3.59802 29.4384C1.97311 27.0774 2.14612 26.443 2.38358 25.5678C2.44125 25.3507 5.60627 16.8496 7.90625 11.2998C8.59829 11.7204 9.38191 12.0054 10.2198 12.1207L8.14032 21.0594C7.82145 22.4265 7.33635 24.4959 8.31333 25.9308C8.79843 26.6466 9.55492 27.0842 10.5624 27.2334C15.5559 27.9764 17.9203 30.9785 17.9407 31.0057C18.1883 31.3314 18.6158 31.4636 19.0025 31.3381L28.7079 28.1392C30.4176 29.1162 32.3953 29.6759 34.5053 29.6759C36.612 29.6759 38.5897 29.1162 40.3028 28.1392L50.0082 31.3381C50.3949 31.467 50.8223 31.3347 51.07 31.0057C51.0937 30.9752 53.4073 27.9831 58.4482 27.2334C59.4524 27.0842 60.2088 26.6466 60.6973 25.9308C61.6743 24.4959 61.1892 22.4265 60.8703 21.0594L58.7909 12.1173C59.6288 12.002 60.409 11.717 61.1044 11.2964C63.401 16.8462 66.566 25.3473 66.6271 25.5644C66.8646 26.4396 67.0376 27.0706 65.416 29.435C63.6486 32.0064 53.7126 39.1981 50.0353 41.7491C49.8284 41.895 49.6859 42.1155 49.6384 42.3631L45.7339 63.867C45.6389 64.386 45.9849 64.8847 46.5039 64.9796C46.5616 64.9898 46.6193 64.9966 46.6769 64.9966C47.1315 64.9966 47.5318 64.6743 47.6166 64.2096L51.4499 43.0925C53.5667 41.61 64.8393 33.6483 66.9901 30.5172C68.9542 27.6507 68.8389 26.4498 68.4623 25.0658ZM11.0475 1.91326C13.3543 1.91326 15.2269 3.78921 15.2269 6.09258C15.2269 8.39596 13.3509 10.2719 11.0475 10.2719C8.74076 10.2719 6.86821 8.39596 6.86821 6.09258C6.86821 3.78581 8.74415 1.91326 11.0475 1.91326ZM24.6744 17.9385C24.6744 12.521 29.081 8.11101 34.5019 8.11101C39.9195 8.11101 44.3295 12.5176 44.3295 17.9385C44.3295 23.356 39.9228 27.766 34.5019 27.766C29.0844 27.766 24.6744 23.356 24.6744 17.9385ZM53.7736 6.09258C53.7736 3.78921 55.6496 1.91326 57.953 1.91326C60.2563 1.91326 62.1323 3.78921 62.1323 6.09258C62.1323 8.39596 60.2563 10.2719 57.953 10.2719C55.6496 10.2719 53.7736 8.39596 53.7736 6.09258Z" fill="#2B2D2F"/>
<path d="M8.39419 42.7668C7.51558 42.7668 6.7998 43.4826 6.7998 44.3612C6.7998 45.2398 7.51558 45.9556 8.39419 45.9556C9.2728 45.9556 9.98857 45.2398 9.98857 44.3612C9.98518 43.4826 9.2694 42.7668 8.39419 42.7668Z" fill="#2B2D2F"/>
<path d="M8.39419 51.2917C7.51558 51.2917 6.7998 52.0075 6.7998 52.8861C6.7998 53.7647 7.51558 54.4805 8.39419 54.4805C9.2728 54.4805 9.98857 53.7647 9.98857 52.8861C9.98518 52.0041 9.2694 51.2917 8.39419 51.2917Z" fill="#2B2D2F"/>
<path d="M8.39419 59.813C7.51558 59.813 6.7998 60.5288 6.7998 61.4074C6.7998 62.286 7.51558 63.0018 8.39419 63.0018C9.2728 63.0018 9.98857 62.286 9.98857 61.4074C9.98518 60.5288 9.2694 59.813 8.39419 59.813Z" fill="#2B2D2F"/>
<path d="M60.609 42.7668C59.7304 42.7668 59.0146 43.4826 59.0146 44.3612C59.0146 45.2398 59.7304 45.9556 60.609 45.9556C61.4876 45.9556 62.2034 45.2398 62.2034 44.3612C62.2034 43.4826 61.4876 42.7668 60.609 42.7668Z" fill="#2B2D2F"/>
<path d="M60.609 51.2917C59.7304 51.2917 59.0146 52.0075 59.0146 52.8861C59.0146 53.7647 59.7304 54.4805 60.609 54.4805C61.4876 54.4805 62.2034 53.7647 62.2034 52.8861C62.2034 52.0041 61.4876 51.2917 60.609 51.2917Z" fill="#2B2D2F"/>
<path d="M60.609 59.813C59.7304 59.813 59.0146 60.5288 59.0146 61.4074C59.0146 62.286 59.7304 63.0018 60.609 63.0018C61.4876 63.0018 62.2034 62.286 62.2034 61.4074C62.2034 60.5288 61.4876 59.813 60.609 59.813Z" fill="#2B2D2F"/>
</svg>
