<svg width="67" height="65" viewBox="0 0 67 65" fill="none" xmlns="http://www.w3.org/2000/svg">
<path d="M34.3244 55.8125H32.6759C32.1108 55.8125 31.6543 56.269 31.6543 56.8341C31.6543 57.3993 32.1108 57.8558 32.6759 57.8558H34.3244C34.8895 57.8558 35.346 57.3993 35.346 56.8341C35.3424 56.269 34.8859 55.8125 34.3244 55.8125Z" fill="#2B2D2F"/>
<path d="M1.21158 14.1602C1.37098 14.2508 1.54126 14.2942 1.71516 14.2942C2.0702 14.2942 2.41799 14.1095 2.60276 13.7762C6.45751 6.96514 12.5874 8.53022 12.841 8.59906C12.9388 8.62804 13.0439 8.63891 13.1453 8.63529C20.286 8.41791 26.3797 1.99455 26.6333 1.71921C27.0173 1.3062 26.9956 0.661329 26.5862 0.277304C26.1732 -0.106721 25.5283 -0.088607 25.1443 0.324401C25.0864 0.38599 19.4455 6.32389 13.2142 6.58836C12.0186 6.33476 5.0953 5.22978 0.827551 12.769C0.548589 13.2617 0.722487 13.8848 1.21158 14.1602Z" fill="#2B2D2F"/>
<path d="M53.8521 8.63524C53.95 8.63524 54.055 8.62437 54.1528 8.59901C54.4137 8.53017 60.54 6.96509 64.3947 13.7761C64.5831 14.1094 64.9273 14.2942 65.286 14.2942C65.4562 14.2942 65.6301 14.2507 65.7895 14.1601C66.2786 13.8812 66.4525 13.258 66.1736 12.7689C61.9058 5.22973 54.9825 6.33471 53.7869 6.58831C47.5628 6.32022 41.9293 0.40043 41.8532 0.32435C41.4691 -0.0886588 40.8206 -0.110396 40.4113 0.277252C39.9983 0.661277 39.9765 1.30977 40.3642 1.71916C40.6214 1.9945 46.7115 8.41786 53.8521 8.63524Z" fill="#2B2D2F"/>
<path d="M39.6904 33.9629C37.8391 33.3615 36.1037 32.4195 34.5205 31.1587V19.3337C34.5205 18.7685 34.0641 18.312 33.4989 18.312C32.9337 18.312 32.4772 18.7685 32.4772 19.3337V31.1624C30.894 32.4231 29.1587 33.3651 27.3074 33.9665C26.7712 34.1404 26.4777 34.7164 26.6516 35.2526C26.7929 35.6837 27.1915 35.9591 27.6226 35.9591C27.7276 35.9591 27.8327 35.9446 27.9378 35.9083C29.9231 35.2635 31.7889 34.2708 33.4989 32.9557C35.2053 34.2708 37.071 35.2635 39.06 35.9083C39.1651 35.9409 39.2701 35.9591 39.3752 35.9591C39.8063 35.9591 40.2048 35.6837 40.3461 35.2526C40.52 34.7128 40.2266 34.1404 39.6904 33.9629Z" fill="#2B2D2F"/>
<path d="M9.73253 23.7101C9.25431 23.8296 8.92825 24.2752 8.96085 24.768C8.97897 25.0723 9.35212 32.2492 1.12094 38.1473C0.660836 38.4769 0.555772 39.1146 0.885454 39.571C1.21514 40.0275 1.85276 40.1326 2.30925 39.8065C7.4646 36.1148 9.57674 31.9014 10.4354 28.8509C11.765 32.8977 13.5764 39.821 13.5764 47.545V63.9711C13.5764 64.5363 14.0329 64.9928 14.5981 64.9928C15.1632 64.9928 15.6197 64.5363 15.6197 63.9711V47.545C15.6197 34.9301 11.1056 24.7064 10.9136 24.2752C10.7107 23.8296 10.2144 23.5905 9.73253 23.7101Z" fill="#2B2D2F"/>
<path d="M65.8799 38.1472C57.6487 32.2491 58.0183 25.0686 58.04 24.7715C58.0762 24.2788 57.7538 23.8296 57.2719 23.7064C56.7901 23.5868 56.2938 23.8259 56.0909 24.2788C55.8989 24.7063 51.3848 34.9301 51.3848 47.5485V63.9747C51.3848 64.5399 51.8413 64.9963 52.4064 64.9963C52.9716 64.9963 53.4281 64.5399 53.4281 63.9747V47.5485C53.4281 39.8246 55.2359 32.9012 56.5691 28.8545C57.4277 31.905 59.5399 36.1147 64.6952 39.8101C65.1517 40.1398 65.7893 40.0311 66.119 39.5746C66.4415 39.1145 66.3364 38.4769 65.8799 38.1472Z" fill="#2B2D2F"/>
<path d="M28.1374 21.7791C28.1374 18.7866 25.7028 16.3521 22.7103 16.3521C19.7178 16.3521 17.2832 18.7866 17.2832 21.7791C17.2832 24.4238 19.1852 26.6265 21.6886 27.1084V63.9784C21.6886 64.5436 22.1451 65.0001 22.7103 65.0001C23.2754 65.0001 23.7319 64.5436 23.7319 63.9784V27.1048C26.239 26.6265 28.1374 24.4202 28.1374 21.7791ZM22.7103 25.1629C20.8445 25.1629 19.3229 23.6449 19.3229 21.7755C19.3229 19.9097 20.8409 18.3881 22.7103 18.3881C24.5797 18.3881 26.0977 19.9061 26.0977 21.7755C26.0977 23.6449 24.5761 25.1629 22.7103 25.1629Z" fill="#2B2D2F"/>
<path d="M44.2874 16.3521C41.2949 16.3521 38.8604 18.7866 38.8604 21.7791C38.8604 24.4238 40.7624 26.6265 43.2658 27.1084V63.9784C43.2658 64.5436 43.7223 65.0001 44.2874 65.0001C44.8526 65.0001 45.3091 64.5436 45.3091 63.9784V27.1048C47.8161 26.6265 49.7145 24.4202 49.7145 21.7755C49.7145 18.7866 47.2799 16.3521 44.2874 16.3521ZM44.2874 25.1629C42.4216 25.1629 40.9 23.6449 40.9 21.7755C40.9 19.9097 42.418 18.3881 44.2874 18.3881C46.1568 18.3881 47.6748 19.9061 47.6748 21.7755C47.6748 23.6449 46.1568 25.1629 44.2874 25.1629Z" fill="#2B2D2F"/>
</svg>
