<svg width="50" height="50" viewBox="0 0 50 50" fill="none" xmlns="http://www.w3.org/2000/svg">
<g clip-path="url(#clip0_330_39)">
<path d="M42.9688 0.195313C44.926 0.195313 46.8832 0.195312 48.9172 0.263534C49.3945 0.6769 49.7949 1.02204 50.1953 1.36719C50.1953 7.49106 50.1953 13.6149 50.1266 19.8131C49.5392 20.2431 49.0461 20.8509 48.497 20.9067C46.8948 21.0696 45.2691 21.0513 43.655 21.0108C43.2896 21.0017 42.7632 20.7013 42.6041 20.3867C42.0261 19.2432 41.0149 19.6165 40.0956 19.4498C41.8936 24.8822 41.3601 29.9294 37.9474 34.8154C38.7771 34.6129 39.3527 34.4744 39.9273 34.3319C41.4567 33.9526 42.7213 34.5427 43.3563 35.9341C43.9489 37.2323 43.5433 38.7062 42.2774 39.4927C38.0298 42.1318 33.7418 44.7064 29.5127 47.3744C27.9924 48.3335 26.4005 48.6633 24.6381 48.6481C19.6299 48.6049 14.6208 48.6629 9.61278 48.6115C8.39754 48.599 7.86363 49.27 7.42188 50.1953C5.46467 50.1953 3.50746 50.1953 1.47338 50.1271C0.996108 49.7137 0.59571 49.3686 0.195313 49.0234C0.195312 42.8996 0.195312 36.7757 0.264069 30.5775C0.90993 30.1182 1.45785 29.4681 2.0699 29.4007C3.57998 29.2345 5.12156 29.2903 6.64577 29.3599C7.04668 29.3782 7.5979 29.6756 7.79108 30.0112C8.40236 31.0731 9.35775 30.833 10.3061 30.9315C8.42811 25.5099 9.11735 20.4765 12.3389 15.5803C11.508 15.7979 10.9564 15.9434 10.4043 16.0867C8.97743 16.457 7.67566 15.835 7.04583 14.4829C6.44013 13.1825 6.83425 11.6921 8.0924 10.9125C12.1815 8.3788 16.3427 5.95751 20.3727 3.33401C22.3013 2.07854 24.2872 1.69555 26.5197 1.73319C31.2704 1.8133 36.0237 1.72689 40.7752 1.77883C41.989 1.7921 42.5271 1.12241 42.9688 0.195313ZM24.21 14.1411C23.8847 13.414 23.5595 12.6868 23.2115 11.9087C23.1203 11.9188 22.9186 11.907 22.7406 11.9665C20.8746 12.5903 19.0087 13.2148 17.1525 13.8668C16.7954 13.9923 16.4371 14.1883 16.1529 14.4361C11.6907 18.3256 9.9247 24.2111 11.9375 29.7979C12.1861 30.4878 12.5807 31.1963 13.0988 31.699C13.6879 32.2704 14.5115 32.5921 15.1978 33.0729C16.2626 33.8189 17.3808 34.288 18.7249 34.1927C19.7605 34.1194 20.8071 34.1416 21.8458 34.1871C23.5213 34.2605 25.0688 34.7237 26.0751 36.1693C26.5538 36.8569 26.8227 37.6906 27.2572 38.6068C29.4256 37.8078 31.6611 36.989 33.8906 36.1544C34.0938 36.0783 34.2758 35.9193 34.4395 35.7684C39.1901 31.3906 40.5224 25.4236 38.0573 19.5188C37.9396 19.2368 37.7416 18.9342 37.4953 18.768C33.7241 16.2225 33.7207 16.2394 29.0495 16.2066C27.2169 16.1937 25.5058 15.8217 24.21 14.1411ZM35.44 15.2278C36.031 15.6221 36.5808 16.1115 37.2223 16.3892C38.3008 16.8562 39.4205 17.2522 40.5553 17.5576C41.4719 17.8042 41.8413 17.4115 41.8232 16.3768C41.7566 12.5706 41.7672 8.76208 41.8176 4.95537C41.8302 4.00178 41.6145 3.67668 40.5901 3.68732C35.3189 3.7421 30.0464 3.67527 24.7756 3.74794C23.8933 3.7601 22.9328 4.10042 22.1544 4.54484C19.6061 5.99986 17.1252 7.57295 14.6183 9.10057C12.8543 10.1755 11.0673 11.2159 9.34517 12.3541C8.99859 12.5832 8.65003 13.2453 8.73796 13.5996C8.89292 14.2241 9.54993 14.3634 10.1869 14.2222C10.3752 14.1805 10.5559 14.1041 10.7397 14.0427C12.9446 13.3052 15.1499 12.5691 17.3541 11.8297C19.5583 11.0903 21.7555 10.3296 23.9665 9.61121C26.3419 8.83936 28.7989 9.23755 31.2199 9.20011C32.5942 9.17885 33.8381 8.92633 34.9678 8.126C35.4469 7.78654 36.0285 7.56933 36.3912 8.23094C36.6962 8.78742 36.5945 9.34504 35.9928 9.74929C34.696 10.6205 33.2592 11.0736 31.7172 11.1202C29.9616 11.1733 28.2031 11.1266 26.4459 11.1363C25.4193 11.1419 25.04 11.8162 25.552 12.7372C26.1012 13.7251 26.9949 14.2026 28.091 14.2464C29.2606 14.2931 30.4477 14.144 31.6012 14.2883C32.8595 14.4457 34.088 14.8416 35.44 15.2278ZM8.59364 38.1836C8.59378 40.657 8.63016 43.1313 8.57443 45.6034C8.55487 46.471 8.82289 46.7017 9.67605 46.696C15.0783 46.6601 20.4812 46.701 25.8832 46.6516C26.5898 46.6451 27.3746 46.4031 27.9845 46.0383C31.9448 43.67 35.8665 41.2373 39.8013 38.8262C40.2695 38.5393 40.8062 38.3233 41.1871 37.9484C41.4689 37.6711 41.794 37.0017 41.6681 36.837C41.4031 36.4903 40.8705 36.3102 40.4149 36.1639C40.209 36.0978 39.9206 36.2635 39.6766 36.345C37.4404 37.0914 35.2061 37.8433 32.9705 38.5917C30.7656 39.3298 28.567 40.0874 26.3528 40.7966C23.9756 41.5581 21.5174 41.1621 19.0963 41.1844C17.7416 41.1969 16.5442 41.4757 15.4458 42.2502C14.9556 42.5958 14.3837 42.7992 14.0114 42.1685C13.6888 41.622 13.7926 41.0792 14.3947 40.6578C15.6829 39.756 17.1238 39.3248 18.6622 39.2721C20.4176 39.212 22.1766 39.2637 23.934 39.2546C24.9879 39.2491 25.2626 38.8314 24.8641 37.8471C24.4133 36.7337 23.4961 36.2228 22.374 36.152C21.1422 36.0743 19.9008 36.1033 18.6652 36.14C16.828 36.1946 15.2669 35.5387 13.829 34.4482C12.5213 33.4564 11.1086 32.7212 9.38029 32.7997C8.79714 32.8262 8.57474 33.0004 8.5863 33.5949C8.61476 35.0588 8.59438 36.5237 8.59364 38.1836ZM48.4377 9.27734C48.4371 7.19637 48.4281 5.11534 48.4404 3.03444C48.4446 2.31254 48.1485 1.94131 47.4013 1.95236C46.5236 1.96535 45.6455 1.95863 44.7676 1.95418C43.9742 1.95016 43.5577 2.32816 43.5575 3.13211C43.5567 8.13948 43.5513 13.1469 43.5633 18.1542C43.5651 18.9325 44.0072 19.3336 44.7944 19.3341C45.5097 19.3345 46.2251 19.3401 46.9404 19.3347C48.1721 19.3252 48.4329 19.0743 48.4355 17.8616C48.4413 15.0653 48.4376 12.269 48.4377 9.27734ZM6.83616 41.3086C6.83588 38.3497 6.84125 35.3908 6.83212 32.4319C6.82909 31.4502 6.45626 31.0753 5.49904 31.0582C4.75142 31.0449 4.00306 31.0695 3.25561 31.0522C2.36423 31.0316 1.94869 31.4402 1.95026 32.3393C1.95889 37.3141 1.96197 42.289 1.94607 47.2638C1.94346 48.0798 2.24993 48.4732 3.09223 48.4426C3.87156 48.4143 4.65282 48.4438 5.4331 48.4354C6.53939 48.4236 6.82518 48.1529 6.83214 47.064C6.84398 45.2107 6.83588 43.3573 6.83616 41.3086Z" fill="#2B2D2F"/>
<path d="M0.195313 49.1211C0.59571 49.3687 0.996108 49.7138 1.38185 50.1272C0.99351 50.1954 0.619833 50.1954 0.195313 50.1954C0.195313 49.8705 0.195312 49.5446 0.195313 49.1211Z" fill="#F6F6F6"/>
<path d="M21.7415 25.1553C20.537 24.2982 19.8809 23.203 20.1512 21.7952C20.5608 19.6618 22.2977 18.9698 24.1263 18.4457C24.3362 17.7558 24.0712 16.7164 25.3034 16.8051C26.3283 16.879 26.0708 17.7458 26.1543 18.0709C27.3989 18.8754 28.5476 19.4641 29.487 20.2906C29.9484 20.6966 30.0753 21.5291 30.255 22.1952C30.4162 22.7926 29.9798 23.1907 29.4707 23.1715C29.1403 23.1591 28.6399 22.7848 28.5379 22.4687C28.1836 21.3706 27.5198 20.7283 26.2764 20.5249C26.2764 21.802 26.2764 23.0369 26.2764 24.3186C28.3305 24.8292 30.1902 25.6264 30.2591 28.172C30.307 29.9436 28.9592 31.1718 26.2571 31.9509C26.0638 32.6037 26.3162 33.6373 25.1093 33.5854C24.0099 33.5381 24.371 32.5628 23.9928 32.1689C22.9561 31.4985 21.8322 30.9264 20.919 30.1167C20.4564 29.7066 20.2572 28.8825 20.172 28.2157C20.1325 27.9063 20.5888 27.3802 20.9378 27.2353C21.1281 27.1564 21.7475 27.6068 21.8557 27.9262C22.2226 29.009 22.8627 29.6772 24.1157 29.8698C24.1157 28.5842 24.1157 27.3497 24.1157 26.1526C23.334 25.8331 22.5647 25.5186 21.7415 25.1553ZM28.3201 27.8905C28.0478 26.8202 27.2195 26.517 26.255 26.3208C26.255 27.5338 26.255 28.6697 26.255 29.8149C27.6497 29.6151 28.1669 29.1597 28.3201 27.8905ZM22.8584 20.9901C22.154 21.4451 21.7888 22.0801 22.2024 22.8609C22.5834 23.5802 23.2263 24.0236 24.1317 23.9787C24.1317 22.7877 24.1317 21.6855 24.1317 20.4487C23.6682 20.6248 23.3196 20.7573 22.8584 20.9901Z" fill="#2B2D2F"/>
<path d="M31.6921 35.9995C30.9929 36.3549 30.3758 36.7319 29.7088 36.968C29.1166 37.1776 28.3933 37.4104 28.0632 36.5503C27.7629 35.7681 28.2908 35.4852 28.9209 35.232C32.9587 33.6093 35.2518 30.5753 35.8923 26.3206C36.1508 24.6035 35.7479 22.916 35.1914 21.2716C35.0705 20.9144 35.0366 20.404 35.2055 20.0983C35.5475 19.4795 36.5368 19.6256 36.8239 20.3818C37.199 21.3697 37.5558 22.4061 37.6604 23.4478C38.0845 27.6691 36.9851 31.4114 33.8421 34.3973C33.2159 34.9922 32.4526 35.4428 31.6921 35.9995Z" fill="#2B2D2F"/>
<path d="M21.7841 13.3003C22.7187 14.1355 22.6196 14.6761 21.5308 15.1169C16.9561 16.9689 14.3209 20.865 14.486 25.7485C14.5243 26.8827 14.9242 28.0148 15.2365 29.1258C15.4152 29.7619 15.4716 30.3095 14.7726 30.5747C14.0761 30.839 13.6754 30.4156 13.4532 29.7992C12.3613 26.77 12.2966 23.694 13.4202 20.6977C14.6264 17.4811 16.8213 15.0758 20.0404 13.7194C20.563 13.4991 21.1493 13.4301 21.7841 13.3003Z" fill="#2B2D2F"/>
</g>
<defs>
<clipPath id="clip0_330_39">
<rect width="50" height="50" fill="white"/>
</clipPath>
</defs>
</svg>
