<svg width="28" height="49" viewBox="0 0 28 49" fill="none" xmlns="http://www.w3.org/2000/svg">
<path d="M13.1296 36.2908H14.8793C15.4842 36.2908 16.0734 36.0979 16.561 35.7399C17.0487 35.382 17.4095 34.8779 17.5908 34.3008C17.675 34.0251 17.7178 33.7384 17.718 33.4501V30.4551C15.3263 31.367 12.6827 31.367 10.291 30.4551V33.4491C10.2912 33.7374 10.334 34.0241 10.4181 34.2998C10.5993 34.877 10.96 35.3814 11.4477 35.7395C11.9354 36.0976 12.5246 36.2908 13.1296 36.2908Z" fill="#EAE7B5"/>
<path d="M10.2903 30.454C12.682 31.3673 15.3264 31.3673 17.7182 30.454C19.3657 29.8574 20.8128 28.8107 21.8953 27.4329C22.9778 26.0552 23.6523 24.4015 23.8422 22.6596C23.8612 22.4378 23.8756 22.2062 23.8756 21.9798C23.8799 21.9445 23.8816 21.9089 23.8807 21.8733V13.7424C23.8765 12.547 23.4803 11.386 22.7527 10.4375C22.5651 10.1964 22.3602 9.96922 22.1398 9.75769C21.1888 10.2987 20.1133 10.5825 19.0192 10.5811H6.83204C6.33364 10.5827 5.84051 10.4791 5.38494 10.2769C4.57676 11.2505 4.13183 12.4745 4.12619 13.7398V21.8707C4.12534 21.9063 4.12705 21.9419 4.13133 21.9772C4.13133 22.2037 4.14575 22.4353 4.16479 22.6571C4.35432 24.3995 5.02882 26.0539 6.11164 27.4322C7.19445 28.8105 8.64216 29.8574 10.2903 30.454Z" fill="#F4F3C3"/>
<path d="M2.65973 16.0088C2.07343 16.3141 1.59747 16.7954 1.29869 17.3851C0.999912 17.9748 0.893307 18.6432 0.993846 19.2966C1.09439 19.95 1.39702 20.5554 1.85926 21.028C2.3215 21.5006 2.92014 21.8165 3.57112 21.9315C3.75416 21.9646 3.93986 21.9808 4.12587 21.9799H4.13102C4.12674 21.9445 4.12502 21.9089 4.12587 21.8733V15.6465C3.61504 15.6468 3.11191 15.7711 2.65973 16.0088Z" fill="#EAE7B5"/>
<path d="M25.3492 16.0088C24.8969 15.7718 24.3937 15.6482 23.8831 15.6486V21.8754C23.8839 21.911 23.8822 21.9466 23.8779 21.9819H23.8831C24.0691 21.9828 24.2548 21.9666 24.4378 21.9336C24.9297 21.8471 25.394 21.6454 25.7928 21.3449C26.1917 21.0444 26.5137 20.6537 26.7325 20.2049C26.9513 19.756 27.0606 19.2617 27.0516 18.7624C27.0426 18.2631 26.9154 17.7731 26.6805 17.3324V17.3272C26.3805 16.7631 25.9162 16.3034 25.3492 16.0088Z" fill="#EAE7B5"/>
<path d="M25.3485 16.0087C25.9152 16.3027 26.3794 16.7617 26.6798 17.3251C27.1878 15.3864 27.2444 13.357 26.8452 11.3931C26.4459 9.42908 25.6016 7.58283 24.377 5.99634C23.1524 4.40984 21.5802 3.12536 19.7814 2.24171C17.9826 1.35805 16.0051 0.898763 14.0009 0.89917C11.9968 0.899577 10.0194 1.35967 8.22099 2.24405C6.42253 3.12844 4.85089 4.41355 3.62695 6.00055C2.40301 7.58754 1.55938 9.43413 1.16097 11.3983C0.762548 13.3624 0.819953 15.3918 1.32876 17.3302C1.59902 16.8227 2.00198 16.3981 2.49465 16.1016C2.98732 15.8052 3.55123 15.648 4.12622 15.6469V13.7429C4.13186 12.4776 4.57679 11.2536 5.38497 10.28C5.84054 10.4822 6.33366 10.5858 6.83207 10.5841H19.0202C20.1143 10.5855 21.1899 10.3018 22.1409 9.76076C22.3608 9.97133 22.5653 10.1975 22.7527 10.4375C23.4803 11.3856 23.8767 12.5462 23.8813 13.7413V15.6454C24.3926 15.6458 24.8961 15.7705 25.3485 16.0087Z" fill="#0197EC"/>
<path d="M27.0483 42.623C27.0487 41.5299 26.8337 40.4474 26.4155 39.4375C25.9974 38.4275 25.3843 37.5099 24.6113 36.737C23.8383 35.9641 22.9206 35.3511 21.9105 34.933C20.9005 34.515 19.818 34.3001 18.7249 34.3007H17.5902C17.4088 34.8777 17.048 35.3819 16.5604 35.7398C16.0727 36.0977 15.4836 36.2907 14.8787 36.2907H13.129C12.5241 36.2907 11.9349 36.0977 11.4473 35.7398C10.9596 35.3819 10.5988 34.8777 10.4175 34.3007H9.28531C7.07802 34.3013 4.96132 35.1785 3.40053 36.7393C1.83974 38.3001 0.962596 40.4168 0.961914 42.6241V47.2175H27.0529V42.623H27.0483Z" fill="#0197EC"/>
<path d="M21.6474 40.0131H20.8457C20.6724 40.0132 20.5063 40.0821 20.3839 40.2047C20.2614 40.3272 20.1926 40.4934 20.1926 40.6666V41.6233H19.2354C19.0625 41.6241 18.897 41.6934 18.7751 41.816C18.6532 41.9386 18.5848 42.1045 18.585 42.2774V43.0791C18.585 43.2523 18.6538 43.4184 18.7762 43.5409C18.8987 43.6634 19.0648 43.7322 19.238 43.7322H20.1952V44.6894C20.1952 44.8626 20.264 45.0287 20.3865 45.1512C20.5089 45.2736 20.675 45.3424 20.8482 45.3424H21.65C21.8233 45.3424 21.9894 45.2736 22.112 45.1512C22.2345 45.0287 22.3034 44.8626 22.3036 44.6894V43.7322H23.2577C23.3435 43.7323 23.4285 43.7154 23.5077 43.6826C23.587 43.6498 23.6591 43.6017 23.7198 43.5411C23.7805 43.4805 23.8286 43.4084 23.8615 43.3292C23.8943 43.2499 23.9112 43.1649 23.9112 43.0791V42.2774C23.9112 42.104 23.8424 41.9378 23.7198 41.8152C23.5972 41.6927 23.431 41.6238 23.2577 41.6238H22.301V40.6661C22.3007 40.4929 22.2318 40.3269 22.1092 40.2045C21.9867 40.082 21.8206 40.0132 21.6474 40.0131Z" fill="#0197EC"/>
<path d="M11.8197 41.2888H5.38184V44.9019H11.8197V41.2888Z" fill="#0197EC"/>
<path d="M2.5081 7.64779C2.40101 7.5976 2.28506 7.56902 2.16691 7.56369C2.04876 7.55836 1.93071 7.57638 1.81953 7.61672C1.70835 7.65706 1.60622 7.71894 1.51897 7.7988C1.43173 7.87866 1.3611 7.97494 1.31111 8.08213C-0.024926 10.9405 -0.3515 14.1676 0.384799 17.2356C0.170072 17.7348 0.05907 18.2725 0.0585334 18.816C0.0585425 19.7463 0.378073 20.6484 0.963656 21.3713C1.54924 22.0942 2.36534 22.5941 3.2754 22.7873C3.47926 24.5805 4.15176 26.2883 5.22525 27.7391C6.29874 29.1898 7.73536 30.3323 9.39058 31.0515V33.3992H9.28302C6.83742 33.4018 4.49271 34.3744 2.76336 36.1036C1.03401 37.8329 0.0612579 40.1775 0.0585334 42.6231V47.2176C0.0585334 47.4565 0.153415 47.6855 0.322306 47.8544C0.491197 48.0233 0.720263 48.1182 0.959111 48.1182H27.0501C27.289 48.1182 27.518 48.0233 27.6869 47.8544C27.8558 47.6855 27.9507 47.4565 27.9507 47.2176V42.6231C27.9529 41.4118 27.7155 40.212 27.2521 39.0928C26.7887 37.9736 26.1084 36.9571 25.2505 36.1019C24.3952 35.2439 23.3786 34.5636 22.2592 34.1003C21.1398 33.6369 19.9398 33.3997 18.7283 33.4023H18.6207V31.051C20.2757 30.3315 21.712 29.189 22.7853 27.7383C23.8586 26.2875 24.531 24.5798 24.7349 22.7868C25.6445 22.5931 26.4602 22.0932 27.0455 21.3705C27.6308 20.6477 27.9503 19.746 27.9507 18.816C27.9496 18.2723 27.8381 17.7344 27.6229 17.2351C28.204 14.7818 28.1121 12.2171 27.357 9.81165C26.6019 7.4062 25.2115 5.24916 23.3326 3.56809C21.4536 1.88703 19.1558 0.744276 16.6814 0.260396C14.2071 -0.223484 11.6481 -0.0305513 9.27427 0.818841C9.04941 0.899435 8.86578 1.06605 8.76377 1.28204C8.66176 1.49803 8.64973 1.74569 8.73032 1.97055C8.81092 2.19541 8.97754 2.37904 9.19352 2.48105C9.40951 2.58306 9.65718 2.59509 9.88203 2.5145C11.8383 1.80786 13.9429 1.61371 15.9954 1.95056C18.0479 2.28741 19.98 3.14403 21.6078 4.43887C23.2356 5.73371 24.5048 7.42366 25.2947 9.34782C26.0846 11.272 26.3688 13.3663 26.1202 15.4314C26.0053 15.3518 25.8865 15.2781 25.7641 15.2106C25.4533 15.0489 25.1229 14.9278 24.7812 14.8504V13.7414C24.7786 12.3447 24.3149 10.9879 23.4622 9.88174C23.2482 9.6062 23.0142 9.34666 22.7624 9.10518C22.6222 8.97101 22.4423 8.88573 22.2497 8.86209C22.0571 8.83844 21.862 8.87768 21.6935 8.97396C20.878 9.43781 19.9557 9.68132 19.0175 9.68052H6.83242C6.46028 9.68237 6.09197 9.60537 5.75173 9.45461C5.57132 9.37437 5.36956 9.35553 5.17742 9.40098C4.98527 9.44644 4.81335 9.55368 4.68802 9.70626C3.75061 10.8422 3.23417 12.267 3.22599 13.7398V14.8483C2.88593 14.9258 2.55729 15.0469 2.24822 15.2085C2.12426 15.276 2.00402 15.35 1.88799 15.4303C1.61648 13.1792 1.98199 10.897 2.94295 8.84325C3.04338 8.62699 3.054 8.37975 2.9725 8.15568C2.89099 7.93161 2.724 7.74898 2.5081 7.64779ZM24.7827 16.7359C24.8342 16.7575 24.8857 16.7812 24.9325 16.8069C25.3222 17.0081 25.6443 17.3193 25.8588 17.7018C25.867 17.7193 25.8753 17.7363 25.8845 17.7533C26.0595 18.0801 26.1506 18.4453 26.1496 18.816C26.1494 19.258 26.0196 19.6902 25.7765 20.0592C25.5333 20.4283 25.1872 20.7179 24.7812 20.8925L24.7827 16.7359ZM18.7262 35.2003C19.7012 35.1998 20.6667 35.3914 21.5675 35.7642C22.4684 36.1371 23.2869 36.6838 23.9763 37.3732C24.6658 38.0626 25.2125 38.8811 25.5854 39.7819C25.9583 40.6827 26.15 41.6482 26.1496 42.6231V46.3171H1.85969V42.6231C1.86187 40.6551 2.64468 38.7682 4.03637 37.3766C5.42806 35.9851 7.31495 35.2024 9.28302 35.2003H9.82183C10.1385 35.8026 10.6141 36.3066 11.197 36.6577C11.7799 37.0087 12.4478 37.1935 13.1282 37.1919H14.8795C15.5599 37.1935 16.2278 37.0087 16.8107 36.6577C17.3936 36.3066 17.8692 35.8026 18.1859 35.2003H18.7262ZM11.1917 33.4506V31.6788C13.0361 32.1598 14.9731 32.1598 16.8175 31.6788V33.4486C16.8171 33.6468 16.7878 33.8439 16.7305 34.0337C16.607 34.4277 16.3607 34.7719 16.0277 35.016C15.6947 35.2601 15.2924 35.3914 14.8795 35.3907H13.1298C12.7166 35.3918 12.3139 35.2606 11.9806 35.0165C11.6473 34.7723 11.4008 34.4279 11.2772 34.0337C11.2204 33.8438 11.1916 33.6467 11.1917 33.4486V33.4506ZM5.02766 15.6465V13.7424C5.02811 12.894 5.26958 12.0633 5.72394 11.3469C6.08622 11.4389 6.45863 11.4851 6.83242 11.4843H19.0206C20.0271 11.4843 21.0226 11.2739 21.9431 10.8667C21.9745 10.9053 22.0059 10.9439 22.0362 10.983C22.6462 11.774 22.9784 12.744 22.9816 13.7429V15.6413V15.648L22.9847 21.8635C22.9797 21.9026 22.9773 21.942 22.9775 21.9814C22.9775 22.1826 22.9636 22.3874 22.9471 22.5814C22.7669 24.1542 22.1516 25.6456 21.1704 26.8879C20.1893 28.1303 18.8811 29.0744 17.3929 29.6142C15.2086 30.4437 12.796 30.4437 10.6118 29.6142C9.12449 29.074 7.81728 28.1299 6.83695 26.8879C5.85662 25.6458 5.24201 24.155 5.06214 22.583C5.04568 22.3859 5.03178 22.1811 5.03178 21.9798C5.03273 21.9445 5.03136 21.909 5.02766 21.8738V15.6465ZM2.12472 17.7518C2.33801 17.3467 2.6705 17.0169 3.07727 16.8069C3.12616 16.7807 3.17608 16.7555 3.22651 16.7359V20.894C2.9389 20.7705 2.68008 20.5885 2.46644 20.3597C2.25281 20.1309 2.08902 19.8603 1.98544 19.5649C1.88187 19.2695 1.84076 18.9558 1.86474 18.6437C1.88871 18.3316 1.97724 18.0279 2.12472 17.7518Z" fill="#1D448E"/>
<path d="M5.97704 4.81698C6.14687 4.66843 6.32046 4.52485 6.49783 4.38625C6.59335 4.3143 6.67358 4.22404 6.73384 4.12075C6.7941 4.01745 6.83319 3.90319 6.84881 3.78463C6.86444 3.66607 6.8563 3.54558 6.82487 3.4302C6.79343 3.31482 6.73933 3.20686 6.66572 3.11261C6.59212 3.01836 6.50047 2.93972 6.39615 2.88127C6.29182 2.82281 6.17689 2.78573 6.05808 2.77217C5.93926 2.75861 5.81894 2.76884 5.70412 2.80229C5.58931 2.83573 5.4823 2.8917 5.38935 2.96694C5.1835 3.12544 4.98692 3.29063 4.79188 3.46046C4.62031 3.61968 4.51747 3.83944 4.50515 4.07319C4.49284 4.30693 4.57201 4.53629 4.7259 4.71266C4.87979 4.88903 5.0963 4.99856 5.32956 5.01803C5.56282 5.0375 5.79449 4.9654 5.9755 4.81698H5.97704Z" fill="#1D448E"/>
<path d="M21.6474 40.0131H20.8457C20.6724 40.0132 20.5063 40.0821 20.3839 40.2047C20.2614 40.3272 20.1926 40.4934 20.1926 40.6666V41.6233H19.2354C19.0625 41.6241 18.897 41.6934 18.7751 41.816C18.6532 41.9386 18.5848 42.1045 18.585 42.2774V43.0791C18.585 43.2523 18.6538 43.4184 18.7762 43.5409C18.8987 43.6634 19.0648 43.7322 19.238 43.7322H20.1952V44.6894C20.1952 44.8626 20.264 45.0287 20.3865 45.1512C20.5089 45.2736 20.675 45.3424 20.8482 45.3424H21.65C21.8233 45.3424 21.9894 45.2736 22.112 45.1512C22.2345 45.0287 22.3034 44.8626 22.3036 44.6894V43.7322H23.2577C23.3435 43.7323 23.4285 43.7154 23.5077 43.6826C23.587 43.6498 23.6591 43.6017 23.7198 43.5411C23.7805 43.4805 23.8286 43.4084 23.8615 43.3292C23.8943 43.2499 23.9112 43.1649 23.9112 43.0791V42.2774C23.9112 42.104 23.8424 41.9378 23.7198 41.8152C23.5972 41.6927 23.431 41.6238 23.2577 41.6238H22.301V40.6661C22.3007 40.4929 22.2318 40.3269 22.1092 40.2045C21.9867 40.082 21.8206 40.0132 21.6474 40.0131Z" fill="#1D448E"/>
<path d="M11.8201 45.6737C12.0248 45.6737 12.2212 45.5924 12.366 45.4476C12.5107 45.3028 12.592 45.1065 12.592 44.9018V41.2886C12.592 41.0839 12.5107 40.8876 12.366 40.7428C12.2212 40.5981 12.0248 40.5167 11.8201 40.5167H5.38228C5.17755 40.5167 4.98121 40.5981 4.83644 40.7428C4.69168 40.8876 4.61035 41.0839 4.61035 41.2886V44.9018C4.61035 45.1065 4.69168 45.3028 4.83644 45.4476C4.98121 45.5924 5.17755 45.6737 5.38228 45.6737H11.8201ZM6.1542 42.0606H11.0482V44.1298H6.1542V42.0606Z" fill="#1D448E"/>
</svg>
