<svg width="73" height="65" viewBox="0 0 73 65" fill="none" xmlns="http://www.w3.org/2000/svg">
<path d="M33.5184 20.3481C32.1274 21.9216 24.1776 31.7754 15.8938 43.7811C15.7974 43.9222 15.7388 44.084 15.7251 44.2527C15.5116 46.9142 15.8662 47.9333 16.813 50.6532C17.3742 52.2646 18.1455 54.4715 19.1715 58.0591C19.9496 60.7722 21.0272 61.5709 22.2805 62.4936C22.3184 62.5212 22.3528 62.5487 22.3907 62.5763C22.2495 62.7278 22.0326 62.9103 21.7847 63.0411C21.0238 63.227 16.1451 62.4454 14.3031 57.5495C13.5457 55.5354 10.1096 52.5125 6.4841 50.6705C4.59391 49.7099 2.28023 46.0603 2.25613 45.3097C2.37663 44.239 4.00172 43.2715 5.72321 42.2455C6.96268 41.5052 8.24691 40.7409 9.2798 39.7769C14.2377 35.2115 14.9779 32.9391 16.0005 29.7922C16.2863 28.9143 16.5789 28.0088 17.0024 26.9518C17.5636 25.5436 18.0009 24.0769 18.4209 22.6618C19.5399 18.8952 20.6003 15.3386 23.8918 12.4362C24.2051 12.1607 24.305 11.7166 24.1431 11.3344L19.6432 0.595775C19.4366 0.0999861 18.8651 -0.130693 18.3727 0.0758853C17.8769 0.282464 17.6462 0.850556 17.8528 1.34634L22.0946 11.4515C18.7859 14.6294 17.6566 18.427 16.5651 22.1041C16.1382 23.5432 15.7319 24.9032 15.2017 26.2288C14.7576 27.3443 14.4374 28.3255 14.1585 29.1897C13.191 32.1644 12.5541 34.1269 7.96114 38.3515C7.0763 39.1778 5.88503 39.8905 4.73163 40.5756C2.58321 41.8564 0.555294 43.0615 0.328058 45.0928C0.131808 46.8522 3.28902 51.2213 5.60614 52.3988C9.02158 54.1341 11.9722 56.8644 12.4887 58.2312C13.945 62.0977 16.937 63.7469 18.5931 64.3838C19.5089 64.735 20.6072 65.0001 21.5024 65.0001C21.95 65.0001 22.3459 64.9347 22.6455 64.7798C23.2824 64.4527 24.3876 63.6195 24.4771 62.5797C24.5219 62.0633 24.305 61.5813 23.8815 61.2611C23.73 61.144 23.5785 61.0338 23.4373 60.9305C22.2771 60.0732 21.6367 59.6015 21.041 57.522C19.9978 53.8828 19.2197 51.6448 18.6481 50.0128C17.7633 47.4754 17.4982 46.7179 17.6428 44.6659C25.7063 32.9976 33.6561 23.1163 34.9713 21.6324C35.3259 21.233 35.2881 20.6167 34.8887 20.2621C34.4859 19.9109 33.873 19.9453 33.5184 20.3481Z" fill="#2B2D2F"/>
<path d="M72.2142 58.5031C71.8803 58.1003 71.3845 57.9075 70.8474 57.9798C70.6511 58.0073 70.4618 58.0349 70.2827 58.059C68.8539 58.269 67.9932 58.3929 66.041 57.3015C62.6393 55.3941 60.4496 54.3233 58.8486 53.5452C56.4006 52.3505 55.6432 51.9787 54.297 50.4396C54.328 49.7717 54.3624 49.0969 54.3968 48.4255C55.9427 48.3566 57.1788 47.0827 57.1788 45.5231V42.3383C57.1788 40.9577 56.2147 39.8043 54.9236 39.5047C55.0062 38.2687 55.0958 37.0637 55.1853 35.8999C56.5108 35.6279 57.5093 34.4539 57.5093 33.0492V29.1965C57.5093 28.1326 56.9343 27.203 56.0805 26.6969C56.3318 24.7929 56.5866 23.4914 56.8276 23.0576C57.0858 22.6858 58.8555 20.0278 58.6937 17.4249C58.5697 15.4245 57.9947 14.068 57.4886 12.8699C57.0583 11.8576 56.6899 10.9797 56.6072 9.81249C56.6038 9.74019 56.6038 9.661 56.6003 9.58525C57.8811 9.27883 58.8383 8.12887 58.8383 6.75513V2.90932C58.8383 1.30489 57.5334 0 55.929 0H38.2355C36.6311 0 35.3262 1.30489 35.3262 2.90932V6.75857C35.3262 8.363 36.6311 9.66789 38.2355 9.66789H38.6831C39.3958 13.6308 39.6196 16.9085 39.6678 17.7658C38.3009 20.9677 38.084 23.8736 38.4317 26.6796C37.5676 27.1858 36.9822 28.1223 36.9822 29.193V33.0423C36.9822 34.6467 38.2871 35.9516 39.8916 35.9516H40.8935C41.2619 37.1153 41.6165 38.3204 41.9332 39.5805C40.7902 39.973 39.9673 41.0575 39.9673 42.3314V45.5162C39.9673 47.1206 41.2722 48.4255 42.8766 48.4255H43.0006C42.973 49.7545 42.8594 51.1455 42.6253 52.6156C42.4704 53.59 42.1949 54.6607 41.9298 55.6936C41.2137 58.479 40.4734 61.3573 41.916 63.1787C42.7492 64.2288 45.9443 64.9966 48.5816 64.9966C49.5147 64.9966 50.3789 64.9002 51.0399 64.6867C54.7997 63.4782 58.9519 63.337 60.3222 63.9637C64.1783 65.7334 67.5559 64.7693 69.2223 64.0394C70.6029 63.4334 72.1385 62.3868 72.4587 61.409C72.6928 60.7169 72.896 59.3191 72.2142 58.5031ZM55.2369 42.3349V45.5196C55.2369 46.0533 54.8031 46.4905 54.266 46.4905H49.6868L49.6214 41.364H54.2626C54.8031 41.3674 55.2369 41.8012 55.2369 42.3349ZM48.4095 14.9838C50.0621 14.9838 51.4049 16.3266 51.4049 17.9792C51.4049 19.6319 50.0621 20.9746 48.4095 20.9746C46.7569 20.9746 45.4141 19.6319 45.4141 17.9792C45.4141 16.3266 46.7569 14.9838 48.4095 14.9838ZM49.6008 39.4256L49.556 35.955H53.2297C53.1401 37.1153 53.0575 38.2825 52.9783 39.4256H49.6008ZM55.5709 33.0457C55.5709 33.5794 55.1371 34.0166 54.6 34.0166H49.5319L49.4596 28.229H54.6C55.1336 28.229 55.5709 28.6628 55.5709 29.1999V33.0457ZM56.7587 17.5454C56.8861 19.5974 55.2404 21.949 55.2231 21.9697C55.2094 21.9903 55.1956 22.011 55.1818 22.0316C54.8272 22.6204 54.5001 24.1766 54.2006 26.2837H49.4321L49.3873 22.8132C51.639 22.3553 53.3398 20.3618 53.3398 17.9758C53.3398 15.4349 51.4118 13.3381 48.9397 13.0695L48.6367 9.66789H54.6585C54.6619 9.76085 54.6619 9.85725 54.6688 9.94677C54.7721 11.4376 55.2438 12.5497 55.6983 13.6273C56.1906 14.7842 56.6554 15.8756 56.7587 17.5454ZM37.2646 6.75857V2.90932C37.2646 2.37566 37.6984 1.9384 38.2355 1.9384H55.929C56.4626 1.9384 56.8999 2.37221 56.8999 2.90932V6.75857C56.8999 7.29223 56.4661 7.72949 55.929 7.72949H38.2355C37.6984 7.72949 37.2646 7.29567 37.2646 6.75857ZM46.6914 9.67133L47.0116 13.2486C44.97 13.8545 43.4723 15.7447 43.4723 17.9792C43.4723 20.3721 45.1834 22.3725 47.4489 22.8201L47.4937 26.2837H40.3391C40.0499 23.7462 40.2875 21.1709 41.5373 18.3373C41.5993 18.1996 41.6268 18.0515 41.6199 17.9035C41.6096 17.6797 41.4512 14.161 40.6628 9.66789H46.6914V9.67133ZM38.9241 33.0457V29.1965C38.9241 28.6628 39.3579 28.2255 39.895 28.2255H47.5178L47.5901 34.0132H39.8916C39.3579 34.0132 38.9241 33.5794 38.9241 33.0457ZM47.6176 35.955L47.6624 39.4256H43.9061C43.61 38.224 43.2795 37.0706 42.9352 35.955H47.6176ZM41.9126 45.5196V42.3349C41.9126 41.8012 42.3464 41.364 42.8835 41.364H47.6865L47.7519 46.4905H42.8801C42.3464 46.4905 41.9126 46.0567 41.9126 45.5196ZM70.6305 60.7824C70.2208 61.4744 66.0823 64.4732 61.1382 62.2043C59.1275 61.2816 54.4347 61.5639 50.4546 62.8447C48.3544 63.5195 44.0025 62.5211 43.4447 61.9771C42.6012 60.9132 43.2209 58.5065 43.82 56.1825C44.0989 55.1049 44.3847 53.9928 44.5534 52.9255C44.8047 51.3451 44.9252 49.8543 44.9562 48.4324H52.4584C52.4102 49.4136 52.3724 50.2055 52.3483 50.7357C52.3379 50.9802 52.4171 51.2178 52.5755 51.4071C54.3452 53.5039 55.3402 53.9894 58.0016 55.2908C59.582 56.062 61.7442 57.119 65.0976 58.9989C67.6248 60.414 68.9882 60.2143 70.5685 59.9836C70.627 59.9767 70.6821 59.9664 70.7407 59.9595C70.7441 60.1729 70.72 60.4863 70.6305 60.7824Z" fill="#2B2D2F"/>
</svg>
