<svg width="59" height="37" viewBox="0 0 59 37" fill="none" xmlns="http://www.w3.org/2000/svg">
<g clip-path="url(#clip0_330_45)">
<path d="M40.8902 19.9479C41.089 19.7984 41.1855 19.6157 41.1855 19.4053C41.1855 19.0344 40.7369 18.6357 40.3224 18.6357C40.0158 18.6357 39.499 19.0842 39.499 19.3499C39.499 19.6323 39.7205 19.9534 39.9817 20.0586C40.3735 20.2192 40.5722 20.1915 40.8902 19.9479Z" fill="#2B2D2F"/>
<path d="M1.40873 20.7839C1.79485 20.9777 3.22011 21.1604 4.36146 21.1604H5.13371L5.05421 23.3805C4.97472 25.8 5.14507 32.726 5.33245 34.47C5.5028 36.0811 5.84918 36.5905 6.97917 36.9005C7.67192 37.0887 9.07447 37.0002 9.54577 36.74C10.2329 36.3579 10.2556 36.214 10.3294 31.6243C10.3691 29.3322 10.4202 27.3059 10.4486 27.1176L10.5054 26.7744L11.1982 27.0456C12.4247 27.5273 13.7364 27.2173 14.4462 26.2761C15.0424 25.4899 15.9623 23.2366 16.4052 21.4815C16.5188 21.0275 16.6266 20.64 16.6437 20.6178C16.7629 20.4573 22.9296 20.2691 29.7152 20.2082C37.5172 20.1417 37.6422 20.1417 37.892 19.9147C38.1986 19.6379 38.2157 19.2891 37.9317 18.9514C37.733 18.7133 37.6138 18.6912 36.1033 18.6192C30.5613 18.359 24.6217 18.3922 18.2279 18.7244L16.8027 18.7964L16.7629 17.7943C16.7175 16.6039 16.5528 16.3326 15.8828 16.3326C15.1446 16.3326 15.0651 16.532 14.9572 18.5583C14.855 20.4684 14.679 21.3321 14.0373 23.0594C13.1458 25.4622 12.7143 25.8664 11.624 25.3238C11.1357 25.0802 10.8234 24.6816 10.8234 24.2885C10.8234 24.139 11.0505 23.5023 11.3288 22.8656C11.607 22.229 11.9193 21.3763 12.0215 20.9666C12.2543 20.0254 12.2543 18.2593 12.0215 15.6738C11.925 14.6164 11.8171 13.1381 11.7774 12.3852C11.7035 11.0398 11.7092 11.0011 12.0499 10.1484C12.6405 8.67022 13.2594 8.01692 14.5313 7.55186C16.286 6.90964 18.58 6.74354 25.7744 6.74354C33.7582 6.73801 33.9399 6.77122 35.7513 8.38233C36.7507 9.26816 37.3469 9.61695 38.4825 9.96575C39.7658 10.3588 40.8163 10.4253 45.7224 10.4087C48.9761 10.3976 50.6228 10.4363 51.0317 10.5249C52.0538 10.7519 52.6386 11.2945 52.809 12.1803L52.8828 12.5734L43.9678 12.6398C39.0106 12.6786 32.2307 12.6565 28.6988 12.5956C22.7365 12.4904 18.6141 12.5568 17.0923 12.7893L16.6721 12.8558V12.125C16.6721 11.2723 16.462 10.7796 16.0418 10.6799C15.65 10.5858 15.2298 10.7907 15.0821 11.1561C14.9061 11.599 15.014 14.6274 15.2127 14.8655C15.6159 15.3361 16.2405 15.2641 16.5699 14.6994L16.7516 14.3894L18.5346 14.3063C19.5169 14.262 23.628 14.2786 27.6767 14.3451C32.0831 14.417 39.4024 14.4392 45.8984 14.3949L56.7611 14.3285L56.8463 15.7181C56.9314 17.1299 56.886 18.1375 56.7384 18.2815C56.6929 18.3258 53.5017 18.3867 49.6518 18.4143L42.6448 18.4697L42.3552 18.7355C41.9009 19.1507 41.9804 19.732 42.5198 20.0088C42.7867 20.1417 43.6441 20.1694 47.636 20.1694H52.4285L52.3604 20.7452C52.2866 21.3763 51.9856 27.9868 51.8607 31.6243L51.7812 33.9274L50.2651 33.9939L50.2367 32.8091C50.2253 32.1558 50.2083 29.4429 50.2083 26.7799C50.2083 22.0795 50.1969 21.93 49.9812 21.7196C49.578 21.332 49.1862 21.3154 48.8171 21.6753L48.4934 21.9909L48.4196 26.6969C48.3401 31.5855 48.4367 34.387 48.7035 34.9185C49.0215 35.5551 49.3622 35.6825 50.7477 35.6825C52.2298 35.6825 52.491 35.6271 53.0077 35.1842C53.303 34.9295 53.4222 34.7191 53.5131 34.2818C53.6153 33.7613 53.7402 30.4838 53.9333 22.8989L54.0071 20.0863L55.7049 20.0088C57.681 19.9203 58.1239 19.8095 58.3453 19.3666C58.7031 18.6358 58.5895 14.3728 58.1807 13.3762C57.9195 12.734 57.5617 12.6122 55.9718 12.6122H54.6942L54.5693 11.9423C54.3875 10.99 54.0525 10.3976 53.3598 9.77197C52.7181 9.20172 51.8948 8.85846 50.7818 8.70898C50.4752 8.66469 47.9426 8.62593 45.1603 8.62039C39.7999 8.60932 39.5046 8.58718 38.3065 8.06121C37.9999 7.92834 37.3128 7.44113 36.7904 6.98161C35.6888 6.01827 34.8711 5.55875 33.8547 5.32622C32.8553 5.09922 30.5669 4.93313 28.4546 4.93313H26.6887V3.43829L27.1486 3.37739C27.7448 3.29988 28.0401 3.03413 28.0401 2.57461C28.0401 2.14276 27.6142 1.76075 27.1259 1.76075C26.8079 1.76075 26.8022 1.74968 26.8022 1.15174C26.8022 0.653464 26.7511 0.498444 26.524 0.276986C25.8539 -0.376313 25.1158 0.17733 25.1158 1.33998C25.1158 1.69985 25.076 1.76629 24.8375 1.81612C24.6842 1.84933 24.4173 1.89916 24.247 1.93792C23.7927 2.03204 23.5429 2.29778 23.5429 2.69641C23.5429 3.2113 23.8836 3.46044 24.5366 3.43275L25.0703 3.41061L25.0249 4.14695C24.9965 4.55111 24.9738 4.88884 24.9624 4.89991C24.9511 4.90545 23.6167 4.9442 21.9984 4.98296L19.0456 5.05493V3.7594L19.4261 3.69297C20.4538 3.50473 20.4538 2.32547 19.4261 2.13723C19.0797 2.07633 19.0456 2.03757 19.0456 1.65556C19.0456 0.509516 18.3018 -0.0441271 17.6374 0.603636C17.4103 0.825093 17.3592 0.980113 17.3592 1.47839C17.3592 2.04865 17.3421 2.0874 17.0525 2.1483C16.4677 2.27564 16.2405 2.41405 16.1724 2.69087C16.0134 3.30542 16.3938 3.73726 17.0866 3.73726C17.3535 3.73726 17.3648 3.76494 17.3648 4.48468V5.2321L16.4449 5.37051C14.6222 5.64179 13.1061 6.2508 12.1976 7.08126L11.6751 7.5574L11.3117 6.87088C10.8007 5.90754 9.84672 5.01618 8.81327 4.52897C8.07509 4.18017 7.84227 4.12481 6.9451 4.08605C5.3722 4.01962 4.22518 4.41824 3.19172 5.39265C1.21566 7.26397 1.06803 10.3921 2.84534 12.59L3.27122 13.116L2.19801 13.2378C1.03963 13.3707 0.693256 13.5367 0.346878 14.1125C0.03457 14.633 -0.0903533 15.9894 0.0459267 17.3735C0.267382 19.505 0.61376 20.3798 1.40873 20.7839ZM4.2706 6.82105C5.55391 5.43141 7.63785 5.42033 9.05176 6.79891C10.1022 7.82315 10.4657 9.34567 9.97165 10.691C9.71044 11.4052 8.96091 12.2025 8.29086 12.4848C6.49083 13.2322 4.63402 12.507 3.7482 10.7021C3.48132 10.1595 3.42453 9.90485 3.42453 9.21279C3.42453 8.14426 3.65167 7.49096 4.2706 6.82105ZM1.82892 15.552C1.85164 15.0482 1.85731 15.0427 2.27183 14.9762C2.71474 14.9098 6.13877 14.7326 8.71674 14.644L10.2442 14.5942L10.3748 16.8641C10.5565 20.0587 10.5168 20.3078 9.29025 23.2532L8.71674 24.6318L8.59181 29.8249C8.52367 32.6817 8.44985 35.079 8.42146 35.1565C8.34197 35.4057 7.30851 35.2839 7.20062 35.0126C7.01324 34.5364 6.59304 21.3044 6.75771 21.1493C6.80882 21.1051 7.35962 21.0497 7.98991 21.0275C8.92116 20.9999 9.17668 20.95 9.36407 20.7839C9.68773 20.5016 9.68773 19.8427 9.36407 19.5604C9.14261 19.3666 8.91548 19.35 5.76968 19.35C2.92484 19.35 2.3854 19.3223 2.24344 19.1839C1.99359 18.9403 1.77214 16.9915 1.82892 15.552Z" fill="#2B2D2F"/>
</g>
<defs>
<clipPath id="clip0_330_45">
<rect width="58.5833" height="37" fill="white"/>
</clipPath>
</defs>
</svg>
