<svg width="66" height="66" viewBox="0 0 66 66" fill="none" xmlns="http://www.w3.org/2000/svg">
<g clip-path="url(#clip0_317_891)">
<path d="M36.2311 0.257812C36.4907 0.429071 36.594 0.677987 36.7736 0.760107C40.2549 2.35222 42.2383 4.99719 42.5584 8.85177C42.5837 9.1568 42.7259 9.55106 42.9517 9.72563C46.1891 12.2293 47.9458 15.5914 48.6509 19.5457C48.7996 20.3798 48.7129 21.2567 48.7258 22.114C48.7469 23.5105 48.7679 24.8206 49.4807 26.1812C50.7473 28.5992 48.9927 30.9285 45.9256 31.28C45.392 32.8167 44.9449 34.3657 44.3196 35.8392C43.5169 37.7308 42.1749 39.2449 40.4345 40.3253C39.6619 40.8048 39.352 41.3499 39.442 42.2049C39.4688 42.4597 39.4569 42.7203 39.444 42.9772C39.3168 45.5049 39.6043 45.9748 42.2891 47.1644C45.3929 48.5397 48.5428 49.8297 51.5561 51.3829C53.0519 52.1538 53.8042 53.7816 53.8481 55.4605C53.9402 58.9777 53.8534 62.4995 53.8616 66.1386C53.272 66.2578 52.6609 66.2578 51.9501 66.1377C51.8406 63.2274 51.7054 60.4303 51.8563 57.6487C52.005 54.9086 50.9029 53.157 48.4046 52.1637C46.8494 51.5455 45.3155 50.8736 43.6317 50.1668C43.6317 53.0005 43.6317 55.5652 43.6317 58.1044C46.4309 59.2733 47.4657 61.6938 46.2026 64.2509C45.8323 65.0005 45.1443 65.5932 44.6019 66.2578C43.3072 66.2578 42.0124 66.2578 40.6203 66.1676C40.1011 65.6687 39.6162 65.3074 39.2678 64.8436C37.4611 62.4383 38.4025 59.5019 41.4021 58.0719C41.4021 55.7405 41.4021 53.4143 41.4021 50.8893C39.1814 52.3509 37.1216 53.6959 35.0735 55.0585C33.8334 55.8835 32.6363 55.88 31.3971 55.0329C29.6748 53.8557 27.924 52.72 26.1797 51.5752C25.8581 51.3642 25.5094 51.1944 25.0082 50.9129C25.0082 51.7852 25.0083 52.3831 25.0082 52.981C25.0079 55.9218 25.0079 55.9218 27.9796 55.9457C29.9989 55.962 31.2196 57.1048 31.1804 59.0991C31.1323 61.5441 31.7653 64.1289 29.9066 66.2578C29.04 66.2578 28.1735 66.2578 27.2162 66.1535C27.3348 65.4549 27.4456 64.4159 27.7706 64.3439C29.1332 64.0423 29.1367 63.1226 29.1333 62.1054C29.1307 61.3321 29.098 60.557 29.1398 59.786C29.2068 58.5479 28.4697 58.0558 27.4172 58.031C25.0558 57.9751 22.6922 58.0091 20.3294 58.0142C19.4126 58.0162 18.8621 58.4671 18.8368 59.402C18.8043 60.604 18.7717 61.8116 18.8599 63.0079C18.8887 63.3989 19.2609 64.0576 19.5339 64.0888C20.9836 64.2547 20.8985 65.2527 20.8832 66.2578C20.0166 66.2578 19.15 66.2578 18.189 66.1669C16.8194 64.9447 16.62 63.4852 16.7441 61.8867C16.8203 60.9066 16.7517 59.9157 16.7602 58.9297C16.7752 57.1902 17.9588 55.9992 19.7316 55.9502C20.5456 55.9278 21.364 55.9805 22.173 55.9121C22.4331 55.8901 22.8785 55.5964 22.8844 55.4155C22.9394 53.7323 22.9169 52.0466 22.9169 50.1293C21.0997 50.9081 19.5591 51.6006 17.9938 52.2318C15.5972 53.1983 14.5391 54.891 14.664 57.5171C14.8022 60.4246 14.6956 63.3437 14.6957 66.2578C14.0845 66.2578 13.4734 66.2578 12.7477 66.2578C12.6332 62.9531 12.7191 59.6454 12.6047 56.3447C12.5209 53.923 14.102 51.309 16.842 50.2559C19.6591 49.1732 22.3914 47.8714 25.1775 46.7055C26.5338 46.138 27.2081 45.2106 27.0769 43.7194C27.0357 43.2506 27.0249 42.7698 27.0802 42.304C27.182 41.4454 26.8619 40.8988 26.1329 40.4085C22.9189 38.2468 21.3906 35.0454 20.7824 31.362C20.0577 31.191 19.3644 31.1221 18.7505 30.8641C17.1598 30.1955 16.3704 28.3864 16.7934 26.5701C17.1483 25.0462 18.5135 24.0029 20.1889 23.9778C20.6612 23.9707 21.1921 24.1055 21.5911 23.9327C22.0886 23.7173 22.8178 23.2829 22.8549 22.8876C23.0263 21.0611 24.2303 20.8169 25.688 20.5771C30.8699 19.7248 35.7267 17.9399 40.2166 15.2C40.9427 14.757 41.7842 14.2409 42.3659 15.0661C42.9982 15.963 42.2944 16.6265 41.4504 17.0483C41.3005 17.1232 41.1546 17.206 40.9272 17.3278C42.801 18.6369 43.6587 20.211 43.5958 22.3244C43.5503 23.8525 44.4027 24.2407 46.5826 23.7858C46.9609 20.2747 46.2017 16.9911 44.1177 14.1437C41.3482 10.3598 37.5097 8.35187 32.7974 8.54209C26.3344 8.80297 21.0972 13.4374 20.0728 19.7821C19.94 20.6049 20.2323 21.9785 18.6573 21.8654C17.8513 21.8075 17.5597 20.6829 17.8582 19.2216C18.6288 15.4477 20.4926 12.3212 23.3574 9.76266C23.6376 9.51245 23.919 9.11153 23.9505 8.75836C24.2891 4.95466 26.2707 2.36246 29.6893 0.788077C29.8706 0.704581 30.0245 0.561622 30.1778 0.352078C32.1464 0.257812 34.1283 0.257812 36.2311 0.257812ZM43.3021 32.2839C43.3927 31.653 43.5336 31.0244 43.5618 30.3907C43.6018 29.4916 43.9685 29.037 44.9117 29.1281C45.2514 29.1608 45.6844 29.255 45.9243 29.0952C46.5525 28.677 47.4811 28.2058 47.5897 27.6248C47.7704 26.6583 46.8029 26.2303 45.9184 26.0637C45.5031 25.9855 45.0607 26.0641 44.6336 26.0318C44.2568 26.0034 43.8637 25.9765 43.5133 25.8504C42.0179 25.3126 41.5063 24.1726 41.4936 22.6458C41.4706 19.904 39.3703 18.3347 37.0677 19.3896C33.5177 21.0159 29.8291 22.1106 25.9817 22.7387C25.609 22.7995 25.1581 23.2894 25.0151 23.6796C24.5678 24.9 23.8352 25.7657 22.5365 26.0029C21.9538 26.1093 21.3379 26.0443 20.7371 26.039C19.7016 26.0298 18.777 26.487 18.9308 27.5164C19.0212 28.1209 20.0319 29.0556 20.598 29.0341C22.3495 28.9675 23.1824 29.4971 23.0301 31.3123C23.0064 31.595 23.1561 31.8895 23.2067 32.1818C24.1952 37.8912 30.4236 41.6848 35.9835 40.0208C39.8439 38.8655 42.1468 36.2666 43.3021 32.2839ZM37.0379 51.0796C38.1106 50.3631 39.1833 49.6465 40.489 48.7743C36.9137 47.5791 37.4075 44.6665 37.3392 42.3105C34.5012 42.3105 31.8935 42.3105 29.1543 42.3105C29.1908 44.7972 29.5235 47.6117 26.0499 48.802C27.4269 49.7207 28.5497 50.4896 29.692 51.2283C34.0542 54.0493 32.4365 54.0827 37.0379 51.0796ZM38.4151 4.5141C36.2621 2.57671 33.8151 1.73523 30.9826 2.70419C28.4315 3.57692 26.7583 5.54267 26.5321 7.78244C31.0423 5.84472 35.5569 5.98224 40.2877 7.54591C39.7075 6.57957 39.1274 5.61322 38.4151 4.5141ZM43.0185 64.0792C43.1698 64.001 43.3935 63.9618 43.4603 63.838C43.8335 63.1469 44.4784 62.4166 44.4373 61.7355C44.3877 60.9138 43.6787 60.3042 42.6187 60.3057C41.5496 60.3071 40.945 60.734 40.6562 61.7387C40.3094 62.9448 41.2636 64.0194 43.0185 64.0792Z" fill="#2B2D2F"/>
<path d="M0.257812 48.5896C2.09989 47.6737 3.9448 46.8851 5.78276 46.0806C6.62369 45.7125 6.79942 43.7029 6.00429 43.1041C4.07009 41.6477 3.23796 39.7283 3.34012 37.3292C3.40218 35.872 3.34254 34.4099 3.35426 32.9501C3.37172 30.7758 4.85655 29.1932 7.01666 29.147C9.37714 29.0965 11.7399 29.1085 14.1009 29.1442C15.7699 29.1695 17.5168 30.5712 17.6727 32.4075C17.8594 34.6062 17.7132 36.8454 17.5604 39.0566C17.4527 40.6151 16.4848 41.7976 15.3634 42.8303C14.1802 43.9198 14.4617 45.5354 15.8545 46.28C16.2656 46.4998 16.6088 47.1403 16.6573 47.621C16.6817 47.8616 15.8553 48.4938 15.6158 48.4048C14.2964 47.9145 13.6143 48.9194 12.8048 49.4993C11.0424 50.7618 10.6527 50.8631 8.62049 50.0113C8.62049 50.9115 8.62049 51.7703 8.62049 52.7522C9.02976 52.7898 9.44423 52.8051 9.85102 52.8692C11.3984 53.1131 11.9467 54.4971 11.591 57.2301C11.4428 58.3686 10.5919 59.1351 9.51027 59.0139C9.18036 58.9769 8.65952 58.7533 8.60917 58.5291C8.52064 58.1349 8.66335 57.6488 8.82471 57.2476C9.09163 56.584 9.45026 55.9573 9.91002 55.0345C8.18339 55.0345 6.92331 55.0345 5.35357 55.0345C5.48968 55.7131 5.41821 56.534 5.79424 56.9579C6.36999 57.6069 6.78937 58.3265 6.05387 58.7614C5.5297 59.0714 4.44151 58.8835 3.85093 58.5192C2.94556 57.9607 3.10561 53.9905 4.01426 53.4114C4.66213 52.9985 5.48786 52.8648 6.35376 52.5651C6.37399 52.3718 6.43502 52.0395 6.43883 51.7065C6.45149 50.5975 6.44362 49.4884 6.44362 48.2084C5.19298 48.6058 4.06705 48.8624 3.04557 49.3416C2.67592 49.5151 2.37017 50.2154 2.35454 50.6859C2.28189 52.8733 2.32668 55.0645 2.31863 57.2543C2.31222 58.9981 2.22014 59.0781 0.366564 59.0134C0.257813 55.5962 0.257813 52.1533 0.257812 48.5896ZM11.7036 42.3006C14.1879 41.6861 15.2754 39.9306 15.611 37.7335C13.7435 37.061 11.831 36.6384 10.2076 35.7103C8.68653 34.8407 7.60409 34.8896 6.51897 36.1489C6.10841 36.6254 5.48236 37.1687 5.46994 37.6937C5.40192 40.5686 8.67692 43.0361 11.7036 42.3006ZM10.1876 31.1954C9.33177 31.1974 8.4733 31.1577 7.6206 31.2107C6.14269 31.3027 5.38881 32.2577 5.53337 33.7751C5.6147 33.7789 5.69985 33.7997 5.7765 33.7826C5.89884 33.7552 6.05324 33.7375 6.12907 33.6556C7.67119 31.9889 9.14568 32.3265 10.8277 33.5662C12.1892 34.5696 13.8191 35.1271 15.5786 35.0487C16.0328 32.2852 15.1448 31.198 12.4969 31.1955C11.8122 31.1949 11.1275 31.1954 10.1876 31.1954ZM11.3467 44.6016C10.4258 44.6016 9.50478 44.6016 8.66039 44.6016C8.17962 46.1775 8.61296 47.2716 9.93619 47.9096C10.2779 48.0743 10.8471 48.0545 11.1892 47.8796C12.4642 47.2277 13.0127 46.1894 12.4868 44.667C12.2194 44.6481 11.8918 44.6248 11.3467 44.6016Z" fill="#2B2D2F"/>
<path d="M66.2575 58.9182C64.1994 59.0349 64.1979 59.0349 64.1951 56.963C64.1928 55.2458 64.1947 53.5286 64.1945 51.8113C64.1941 49.346 63.8355 48.9728 61.1099 48.7328C61.1099 49.9764 61.0608 51.2132 61.1433 52.4412C61.1648 52.7611 61.5419 53.1336 61.8498 53.3448C63.2387 54.2971 63.6934 56.4325 62.744 57.7553C61.7845 59.0923 59.5429 59.5295 58.2707 58.6278C56.8343 57.6098 56.3416 55.2589 57.6968 54.144C59.4335 52.7153 59.0001 51.0445 58.9881 49.0916C58.4777 49.4212 58.0887 49.64 57.7357 49.9064C56.5999 50.7635 55.527 50.7975 54.3422 49.9605C53.784 49.5661 53.2873 49.0702 52.6947 48.7437C52.2951 48.5235 51.7704 48.415 51.3127 48.4422C50.5919 48.4851 49.8912 48.3993 49.8446 47.6193C49.818 47.1756 50.2375 46.4923 50.6468 46.2738C52.1133 45.4905 52.1652 43.9994 51.0926 42.7463C50.084 41.5679 49.1866 40.0869 48.8449 38.6C48.4608 36.9284 48.5692 35.0769 48.7957 33.3472C49.1358 30.7497 51.6628 28.959 53.8196 29.1131C55.2718 29.2169 56.7375 29.1281 58.1971 29.134C61.0778 29.1457 63.1583 31.2438 63.1612 34.1499C63.1628 35.7379 63.26 37.3384 63.0951 38.9102C62.9252 40.53 62.0105 41.8477 60.8176 42.9525C59.4547 44.2148 59.7712 45.7854 61.5259 46.3506C63.1422 46.8713 64.8258 47.2353 66.1673 48.4929C66.2575 51.9116 66.2575 55.3545 66.2575 58.9182ZM51.5506 32.3822C50.5553 33.8803 50.7288 35.5801 50.8153 37.2235C50.9685 40.1339 53.0095 42.2662 55.7366 42.5299C57.8932 42.7383 60.3848 40.9213 60.906 38.4147C61.2214 36.8975 61.1838 35.2501 60.9853 33.7021C60.845 32.6072 60.0658 31.6078 58.8072 31.4584C57.3324 31.2833 55.8271 31.1365 54.3555 31.248C53.4454 31.317 52.5736 31.8901 51.5506 32.3822ZM55.5359 47.9816C57.3825 48.019 58.5878 46.7275 57.8216 44.6393C56.569 44.6393 55.303 44.6393 54.045 44.6393C53.6845 46.54 53.6845 46.54 55.5359 47.9816ZM60.3934 56.9222C60.5767 56.5127 60.8756 56.1083 60.8938 55.6916C60.9025 55.4899 60.3667 55.0764 60.1095 55.1005C59.8104 55.1286 59.4149 55.478 59.2926 55.7812C58.9645 56.5953 59.6209 56.7714 60.3934 56.9222Z" fill="#2B2D2F"/>
<path d="M29.2324 32.6117C29.9035 32.5324 30.638 32.3391 31.1296 32.6012C32.5805 33.375 33.899 33.3727 35.3614 32.6236C35.8706 32.3628 36.9978 32.3467 37.2073 32.6532C37.7221 33.4064 37.3193 34.1362 36.4353 34.5773C34.3961 35.5947 32.3443 35.5891 30.2918 34.7048C29.464 34.3481 28.8654 33.7523 29.2324 32.6117Z" fill="#2B2D2F"/>
<path d="M39.4432 28.033C39.5016 28.8799 39.0753 29.2455 38.4446 29.077C38.0451 28.9702 37.5399 28.5435 37.4382 28.1647C37.0449 26.6996 37.589 25.8633 38.6775 26.06C39.8843 26.2781 39.2916 27.257 39.4432 28.033Z" fill="#2B2D2F"/>
<path d="M29.128 27.1219C29.1218 27.5739 29.2465 28.0256 29.0754 28.2318C28.7674 28.6029 28.307 28.9687 27.8594 29.0473C27.6609 29.0822 27.2076 28.4462 27.1062 28.0537C26.984 27.5802 26.9915 26.9905 27.178 26.5508C27.2905 26.2854 27.9155 26.0075 28.1919 26.0977C28.563 26.2187 28.8198 26.69 29.128 27.1219Z" fill="#2B2D2F"/>
</g>
<defs>
<clipPath id="clip0_317_891">
<rect width="66" height="66" fill="white"/>
</clipPath>
</defs>
</svg>
