<svg width="57" height="50" viewBox="0 0 57 50" fill="none" xmlns="http://www.w3.org/2000/svg">
<g clip-path="url(#clip0_330_35)">
<path d="M42.2568 16.1524C42.398 16.2081 42.5222 16.2582 42.5335 16.2582C42.5448 16.2638 42.6803 16.2081 42.8328 16.1412C43.2224 15.963 43.4088 15.484 43.2507 15.044C43.0361 14.4313 42.5222 14.2252 42.0479 14.5538C41.5679 14.888 41.709 15.9352 42.2568 16.1524Z" fill="#2B2D2F"/>
<path d="M9.75229 49.8387C10.605 49.4376 10.7123 48.7581 10.7123 43.918V40.0748L11.0172 40.1584C11.1867 40.2029 11.6554 40.2419 12.0563 40.2419C12.6493 40.2419 12.8864 40.1807 13.3213 39.93C14.2982 39.3675 14.7895 38.4874 15.501 36.0367C16.2747 33.3744 16.3481 32.9009 16.3537 30.3221L16.3594 28.0051L22.4526 27.9215C31.4879 27.7934 48.3389 27.7266 51.8401 27.8046L54.9008 27.8714L54.8443 29.5702C54.8104 30.5059 54.754 31.3024 54.7088 31.347C54.6015 31.4528 45.5831 31.4027 39.9473 31.2634C37.4287 31.2022 31.4541 31.152 26.671 31.152C17.229 31.152 17.325 31.1465 17.0935 31.748C16.9636 32.0822 17.133 32.6336 17.4041 32.7673C17.5058 32.8174 20.3406 32.8842 23.695 32.9121L29.7995 32.9678L29.3138 33.7977C28.5176 35.1456 28.2522 36.3709 28.1844 38.9776C28.0432 44.5084 29.2686 47.4548 31.8042 47.6665C32.7981 47.75 34.0122 47.0593 34.5938 46.0791C35.1247 45.1879 35.2094 44.6309 35.1811 42.286C35.1303 38.3927 35.1021 38.6935 35.5821 37.7634C36.0282 36.8945 36.4235 36.2874 36.4969 36.3598C36.5195 36.3821 36.5929 36.7942 36.6607 37.2732C36.7906 38.2257 37.4795 40.9381 37.9482 42.3362C38.4113 43.723 39.0663 44.9874 39.4899 45.3049C40.6532 46.1793 42.4038 46.1069 43.5219 45.1322C44.3068 44.4527 44.5158 43.9681 44.5723 42.7205C44.6118 41.7402 44.5779 41.5285 44.0358 39.4677C43.7139 38.2535 43.3299 36.7664 43.1831 36.1593C43.0363 35.5522 42.8555 34.945 42.7878 34.8114C42.5224 34.2934 41.6414 34.3045 41.3591 34.8337C41.1388 35.2458 41.2857 36.1091 42.0367 38.8049C42.7482 41.3503 42.9628 42.7817 42.7144 43.4056C42.449 44.0795 41.2461 44.3858 40.6532 43.9291C40.2918 43.6451 39.6649 42.0632 38.9703 39.6849C38.3435 37.5294 38.2306 36.8499 38.2306 35.2124V33.9369L39.0325 33.0123L43.1322 33.0847C45.3854 33.1237 47.2659 33.185 47.3055 33.224C47.4862 33.3855 47.6499 37.7467 47.6725 42.7762C47.6895 46.8087 47.729 48.268 47.8363 48.5298C48.0791 49.1369 48.4292 49.2817 49.6377 49.2761C51.6255 49.265 52.4387 48.864 52.6194 47.8224C52.6702 47.5383 52.6928 46.4801 52.6758 45.4831C52.6589 44.4805 52.6758 41.2723 52.7154 38.3538L52.7944 33.0458L54.0933 33.0068C55.5841 32.9622 56.1093 32.7561 56.3408 32.11C56.5271 31.592 56.6232 28.4674 56.4707 27.6988C56.194 26.2673 55.9116 26.0278 54.5394 26.0557L53.5737 26.0724L53.5003 25.482C53.4608 25.1589 53.2857 24.6019 53.1107 24.2455C52.2636 22.5021 50.4678 21.8895 46.2438 21.8895H43.9511L43.8946 21.4216C43.8607 21.1654 43.8043 20.2854 43.7647 19.4666C43.6857 17.8402 43.5445 17.3278 43.1097 17.1329C42.7482 16.9713 42.3021 17.1496 42.1666 17.506C42.1158 17.6453 42.0988 18.6868 42.1271 19.8286L42.1835 21.9006L41.5793 21.8282C40.608 21.7112 40.1111 21.4216 38.8969 20.2909C38.2701 19.7061 37.4852 19.0767 37.1576 18.8929L36.559 18.5587V17.8458C36.559 16.4589 36.0113 14.9551 35.1811 14.075C35.0004 13.8801 33.9331 13.2006 33.3458 12.8998C33.3345 12.8942 33.4249 12.6826 33.5491 12.4375C33.9162 11.7023 33.5887 11.0785 32.8376 11.0785C32.3745 11.0785 32.1148 11.396 31.1435 13.1727C29.4832 16.2027 29.0541 16.6984 27.1623 17.7344C26.5185 18.0909 25.9256 18.4585 25.8465 18.5532C25.615 18.8372 25.6714 19.422 25.9538 19.617C26.27 19.8342 26.5242 19.8342 27.0042 19.6114C27.3373 19.4555 27.7835 19.4388 30.5957 19.4945C35.3336 19.5836 35.6611 19.6838 37.999 21.8393C39.8626 23.5548 40.2071 23.6495 45.041 23.6495C47.9549 23.6551 48.5986 23.6829 49.4909 23.8667C51.0382 24.1842 51.5125 24.5407 51.6989 25.5544L51.778 25.9665L48.2146 25.9777C29.1557 26.0278 25.6206 26.0724 17.9858 26.3564L16.2464 26.4233L16.1166 25.727C15.9415 24.7746 15.422 24.407 14.7556 24.7523C14.3547 24.964 14.3151 25.3873 14.4902 27.7489C14.7104 30.7343 14.637 32.3384 14.1909 34.1263C13.5358 36.7608 13.1293 37.8358 12.6097 38.3148C12.1749 38.7158 11.3278 38.5598 10.8704 38.0084C10.6107 37.691 10.7067 36.8332 11.1245 35.8474C11.949 33.8812 11.9716 33.5637 11.7457 27.1696L11.5932 22.9087L11.9603 22.3462C12.4403 21.611 13.1801 20.976 14.0271 20.575C14.7782 20.2241 16.4836 19.7562 17.438 19.6448L18.0535 19.5724L18.2681 20.0904C18.7199 21.1877 19.9509 21.895 21.3909 21.895C22.0742 21.895 23.7571 21.5163 24.1241 21.2768C24.734 20.8813 24.6832 20.0626 24.0281 19.7952C23.7571 19.6838 23.5425 19.7005 22.7293 19.9066C21.1255 20.3076 20.0131 20.0681 19.9171 19.2995C19.8436 18.6868 20.0187 18.0352 20.3575 17.6564C20.5608 17.4281 21.3909 16.9101 22.5034 16.3252C25.3834 14.7991 25.8747 14.4092 26.8743 12.8831C27.535 11.8694 30.4094 6.52241 30.4094 6.29962C30.4094 6.00999 30.6465 5.99885 31.6461 6.22721C33.4701 6.64495 35.2828 7.24648 36.4292 7.79789C38.2588 8.68349 39.5351 10.0035 40.2409 11.719C40.9186 13.3621 40.9525 13.429 41.2969 13.5738C41.7544 13.7631 42.2005 13.596 42.3755 13.1672C42.4998 12.8775 42.4828 12.7272 42.2626 12.0421C41.7035 10.3266 40.5007 8.47741 39.3148 7.52497C37.7732 6.28291 35.4692 5.39174 31.9171 4.65653L30.7143 4.40589L30.4715 3.57599C30.1609 2.5233 29.7882 1.89392 29.071 1.23111C27.2075 -0.489954 24.35 -0.400838 22.5938 1.43162C20.6625 3.44789 20.7077 6.5057 22.7011 8.38272C23.6328 9.25718 24.3783 9.56909 25.7392 9.64706L26.8347 9.70833L26.078 10.9504C24.7736 13.0892 24.6776 13.1672 21.3853 14.9384C19.7702 15.8073 18.8554 16.5425 18.4432 17.3055C18.189 17.779 18.1495 17.8012 17.5566 17.8736C15.2526 18.1521 12.9598 19.0377 11.7118 20.135L11.085 20.6808L10.7236 20.0459C10.0177 18.8149 8.23322 17.4559 7.57816 17.6509C7.16592 17.7734 6.92875 18.0407 6.92875 18.3861C6.92875 18.8539 7.08686 19.0767 7.64028 19.3942C8.35746 19.8064 9.22147 20.7922 9.51511 21.533C9.87653 22.4297 9.87653 23.8166 9.52076 24.6019C8.76405 26.2673 6.78192 26.9301 5.02003 26.1169C2.48449 24.9528 1.66001 21.6722 3.4219 19.8676C3.90191 19.3719 4.39885 19.1101 5.17815 18.9208C5.90662 18.7425 6.12686 18.5364 6.12686 18.0296C6.12686 17.1273 5.10474 16.9379 3.7099 17.5784C2.7499 18.024 2.12307 18.5309 1.62048 19.2717C0.265178 21.2824 0.41765 23.8612 2.01013 25.9387L2.54096 26.6294H2.17954C1.62048 26.6294 1.02189 26.8299 0.64918 27.1362C0.101412 27.5929 -0.0736474 28.3838 0.016706 30.0436C0.16353 32.9121 0.316002 33.0402 3.49531 33.1293L5.61862 33.185L5.59039 35.9977C5.57344 37.5461 5.52827 39.2282 5.49438 39.7462C5.40968 40.9771 5.6525 48.1733 5.79368 48.7024C5.94051 49.2538 6.30757 49.6437 6.84969 49.8331C7.47651 50.0559 9.28358 50.0559 9.75229 49.8387ZM36.271 33.586C34.9779 35.2625 34.0913 36.6494 33.6508 37.6798L33.3571 38.3705L33.3515 41.5675C33.3458 44.5641 33.3289 44.7869 33.12 45.1322C32.9957 45.3327 32.7416 45.5945 32.5496 45.7115C32.0131 46.0401 31.6517 45.9844 31.1661 45.5109C30.3698 44.7256 29.9294 42.5144 29.9181 39.2561C29.9124 36.3988 30.1552 35.3851 31.2564 33.7197L31.7816 32.9232H34.2155C35.5539 32.9232 36.6494 32.9622 36.6494 33.0179C36.6437 33.0625 36.48 33.3242 36.271 33.586ZM51.1342 34.3769C50.9365 37.7244 50.8349 41.4283 50.8575 44.2466C50.8688 45.9621 50.8631 47.3768 50.8349 47.3991C50.8066 47.4214 50.5017 47.4715 50.1516 47.5105L49.5191 47.5829L49.4401 46.8421C49.3949 46.4355 49.3949 44.759 49.4344 43.1215C49.5022 40.4369 49.4118 36.8666 49.2085 34.104L49.1351 33.1404H51.2076L51.1342 34.3769ZM33.5717 17.9182C33.2047 17.8736 32.256 17.8291 31.4654 17.8235L30.031 17.8124L30.5223 17.261C30.7877 16.9602 31.3524 16.1637 31.776 15.4953L32.5383 14.2811L33.0578 14.5763C34.2211 15.2336 34.6503 15.9075 34.7237 17.1718C34.7802 18.1521 34.8931 18.0797 33.5717 17.9182ZM24.3839 7.55282C23.3561 6.78419 22.9665 6.06012 22.9608 4.91274C22.9552 3.86005 23.2771 3.10256 23.983 2.48988C25.5867 1.09744 27.9924 1.73796 28.6644 3.73752C28.9298 4.52843 28.8338 5.72593 28.4498 6.37203C28.1166 6.94015 27.4842 7.5194 26.9816 7.72549C26.1853 8.0541 24.943 7.97056 24.3839 7.55282ZM4.39885 31.3748L1.94236 31.3135L1.85766 30.6507C1.81248 30.2887 1.78425 29.6426 1.80119 29.2193L1.82942 28.4507L2.38848 28.3616C3.00402 28.2669 9.88218 28.1945 9.96688 28.2836C9.99512 28.3114 10.0459 29.0466 10.0798 29.91L10.1476 31.4806L8.50428 31.4584C7.5951 31.4417 5.7485 31.4082 4.39885 31.3748ZM7.53863 48.1455C7.43699 47.9784 7.25063 40.8992 7.25063 37.017V33.2351L9.98947 33.2964L9.95559 33.6807C9.93865 33.8924 9.70712 34.5607 9.453 35.1678L8.98993 36.2707L8.9617 41.8961C8.94476 44.9874 8.90523 47.6776 8.87135 47.8781C8.80923 48.229 8.79793 48.2346 8.20499 48.2346C7.86616 48.2401 7.56687 48.2011 7.53863 48.1455Z" fill="#2B2D2F"/>
</g>
<defs>
<clipPath id="clip0_330_35">
<rect width="56.5217" height="50" fill="white"/>
</clipPath>
</defs>
</svg>
